goteka-regular.ufo
<glyph name="numbersign" format="2">
  <advance width="1403"/>
  <unicode hex="0023"/>
  <outline>
    <contour>
      <point x="1047" y="957" type="line"/>
      <point x="933" y="499" type="line"/>
      <point x="1184" y="499" type="line"/>
      <point x="1155" y="383" type="line"/>
      <point x="903" y="383" type="line"/>
      <point x="806" y="0" type="line"/>
      <point x="682" y="0" type="line"/>
      <point x="778" y="383" type="line"/>
      <point x="441" y="383" type="line"/>
      <point x="343" y="0" type="line"/>
      <point x="220" y="0" type="line"/>
      <point x="314" y="383" type="line"/>
      <point x="75" y="383" type="line"/>
      <point x="101" y="499" type="line"/>
      <point x="344" y="499" type="line"/>
      <point x="459" y="957" type="line"/>
      <point x="216" y="957" type="line"/>
      <point x="245" y="1071" type="line"/>
      <point x="490" y="1071" type="line"/>
      <point x="586" y="1456" type="line"/>
      <point x="713" y="1456" type="line"/>
      <point x="614" y="1071" type="line"/>
      <point x="952" y="1071" type="line"/>
      <point x="1048" y="1456" type="line"/>
      <point x="1173" y="1456" type="line"/>
      <point x="1077" y="1071" type="line"/>
      <point x="1330" y="1071" type="line"/>
      <point x="1299" y="957" type="line"/>
    </contour>
    <contour>
      <point x="921" y="957" type="line"/>
      <point x="584" y="957" type="line"/>
      <point x="469" y="499" type="line"/>
      <point x="806" y="499" type="line"/>
    </contour>
  </outline>
</glyph>
<glyph name="dollar" format="2">
  <advance width="1182"/>
  <unicode hex="0024"/>
  <outline>
    <contour>
      <point x="611" y="-20" type="qcurve"/>
      <point x="303" y="-20"/>
      <point x="90" y="209" type="qcurve"/>
      <point x="182" y="330" type="line"/>
      <point x="275" y="234"/>
      <point x="379" y="176" type="qcurve"/>
      <point x="487" y="122"/>
      <point x="617" y="121" type="qcurve"/>
      <point x="716" y="121"/>
      <point x="785" y="154" type="qcurve"/>
      <point x="855" y="192"/>
      <point x="888" y="248" type="qcurve"/>
      <point x="926" y="308"/>
      <point x="925" y="373" type="qcurve"/>
      <point x="926" y="428"/>
      <point x="906" y="476" type="qcurve"/>
      <point x="886" y="526"/>
      <point x="843" y="556" type="qcurve"/>
      <point x="758" y="616"/>
      <point x="568" y="664" type="qcurve"/>
      <point x="422" y="702"/>
      <point x="332" y="748" type="qcurve"/>
      <point x="240" y="792"/>
      <point x="187" y="871" type="qcurve"/>
      <point x="161" y="912"/>
      <point x="148" y="957" type="qcurve"/>
      <point x="136" y="1002"/>
      <point x="135" y="1064" type="qcurve"/>
      <point x="136" y="1178"/>
      <point x="193" y="1271" type="qcurve"/>
      <point x="250" y="1366"/>
      <point x="351" y="1423" type="qcurve"/>
      <point x="454" y="1476"/>
      <point x="578" y="1476" type="qcurve"/>
      <point x="720" y="1479"/>
      <point x="832" y="1425" type="qcurve"/>
      <point x="948" y="1369"/>
      <point x="1043" y="1269" type="qcurve"/>
      <point x="951" y="1148" type="line"/>
      <point x="865" y="1238"/>
      <point x="769" y="1285" type="qcurve"/>
      <point x="675" y="1338"/>
      <point x="570" y="1335" type="qcurve"/>
      <point x="492" y="1338"/>
      <point x="426" y="1302" type="qcurve"/>
      <point x="362" y="1272"/>
      <point x="324" y="1210" type="qcurve"/>
      <point x="292" y="1152"/>
      <point x="289" y="1082" type="qcurve"/>
      <point x="289" y="1031"/>
      <point x="307" y="986" type="qcurve"/>
      <point x="327" y="942"/>
      <point x="369" y="912" type="qcurve"/>
      <point x="456" y="858"/>
      <point x="644" y="808" type="qcurve"/>
      <point x="858" y="754"/>
      <point x="966" y="660" type="qcurve"/>
      <point x="1078" y="570"/>
      <point x="1076" y="396" type="qcurve"/>
      <point x="1078" y="280"/>
      <point x="1027" y="182" type="qcurve"/>
      <point x="975" y="90"/>
      <point x="867" y="33" type="qcurve"/>
      <point x="762" y="-20"/>
    </contour>
    <contour>
      <point x="504" y="1630" type="line"/>
      <point x="654" y="1630" type="line"/>
      <point x="654" y="-162" type="line"/>
      <point x="504" y="-162" type="line"/>
    </contour>
  </outline>
</glyph>
<glyph name="parenright" format="2">
  <advance width="760"/>
  <unicode hex="0029"/>
  <outline>
    <contour>
      <point x="111" y="-273" type="line"/>
      <point x="199" y="-180"/>
      <point x="263" y="-85" type="qcurve"/>
      <point x="329" y="10"/>
      <point x="375" y="109" type="qcurve"/>
      <point x="468" y="312"/>
      <point x="467" y="566" type="qcurve"/>
      <point x="468" y="822"/>
      <point x="375" y="1021" type="qcurve"/>
      <point x="288" y="1220"/>
      <point x="109" y="1406" type="qcurve"/>
      <point x="187" y="1488" type="line"/>
      <point x="399" y="1312"/>
      <point x="510" y="1076" type="qcurve"/>
      <point x="626" y="840"/>
      <point x="623" y="566" type="qcurve"/>
      <point x="626" y="296"/>
      <point x="510" y="62" type="qcurve"/>
      <point x="399" y="-174"/>
      <point x="187" y="-355" type="qcurve"/>
    </contour>
  </outline>
</glyph>
<glyph name="plus" format="2">
  <advance width="1143"/>
  <unicode hex="002B"/>
  <outline>
    <contour>
      <point x="1015" y="572" type="line"/>
      <point x="644" y="572" type="line"/>
      <point x="644" y="203" type="line"/>
      <point x="498" y="203" type="line"/>
      <point x="498" y="572" type="line"/>
      <point x="129" y="572" type="line"/>
      <point x="129" y="715" type="line"/>
      <point x="498" y="715" type="line"/>
      <point x="498" y="1086" type="line"/>
      <point x="644" y="1086" type="line"/>
      <point x="644" y="715" type="line"/>
      <point x="1015" y="715" type="line"/>
    </contour>
  </outline>
</glyph>
<glyph name="slash" format="2">
  <advance width="868"/>
  <unicode hex="002F"/>
  <outline>
    <contour>
      <point x="194" y="0" type="line"/>
      <point x="30" y="0" type="line"/>
    </contour>
    <contour>
      <point x="30" y="0" type="line"/>
      <point x="655" y="1456" type="line"/>
      <point x="819" y="1456" type="line"/>
      <point x="194" y="0" type="line"/>
    </contour>
  </outline>
</glyph>
<glyph name="one" format="2">
  <advance width="709"/>
  <unicode hex="0031"/>
  <outline>
    <contour>
      <point x="375" y="1271" type="line"/>
      <point x="115" y="1103" type="line"/>
      <point x="51" y="1214" type="line"/>
      <point x="406" y="1456" type="line"/>
      <point x="525" y="1456" type="line"/>
      <point x="525" y="0" type="line"/>
      <point x="375" y="0" type="line"/>
    </contour>
  </outline>
</glyph>
<glyph name="two" format="2">
  <advance width="1223"/>
  <unicode hex="0032"/>
  <outline>
    <contour>
      <point x="96" y="125" type="line"/>
      <point x="629" y="584" type="line"/>
      <point x="666" y="617"/>
      <point x="718" y="665" type="qcurve"/>
      <point x="772" y="712"/>
      <point x="818" y="772" type="qcurve"/>
      <point x="866" y="832"/>
      <point x="898" y="902" type="qcurve"/>
      <point x="931" y="972"/>
      <point x="931" y="1048" type="qcurve"/>
      <point x="932" y="1080"/>
      <point x="916" y="1130" type="qcurve"/>
      <point x="901" y="1181"/>
      <point x="863" y="1229" type="qcurve"/>
      <point x="827" y="1278"/>
      <point x="767" y="1311" type="qcurve"/>
      <point x="707" y="1345"/>
      <point x="619" y="1345" type="qcurve"/>
      <point x="496" y="1346"/>
      <point x="389" y="1272" type="qcurve"/>
      <point x="282" y="1200"/>
      <point x="213" y="1113" type="qcurve"/>
      <point x="105" y="1199" type="line"/>
      <point x="304" y="1478"/>
      <point x="619" y="1478" type="qcurve"/>
      <point x="767" y="1478"/>
      <point x="857" y="1425" type="qcurve"/>
      <point x="946" y="1372"/>
      <point x="996" y="1300" type="qcurve"/>
      <point x="1046" y="1228"/>
      <point x="1064" y="1157" type="qcurve"/>
      <point x="1082" y="1086"/>
      <point x="1082" y="1050" type="qcurve"/>
      <point x="1083" y="872"/>
      <point x="979" y="745" type="qcurve"/>
      <point x="876" y="620"/>
      <point x="732" y="492" type="qcurve"/>
      <point x="334" y="141" type="line"/>
      <point x="1097" y="141" type="line"/>
      <point x="1097" y="0" type="line"/>
      <point x="96" y="0" type="line"/>
    </contour>
  </outline>
</glyph>
<glyph name="five" format="2">
  <advance width="1274"/>
  <unicode hex="0035"/>
  <outline>
    <contour>
      <point x="625" y="-23" type="qcurve"/>
      <point x="466" y="-25"/>
      <point x="338" y="37" type="qcurve"/>
      <point x="214" y="97"/>
      <point x="121" y="199" type="qcurve"/>
      <point x="221" y="308" type="line"/>
      <point x="406" y="107"/>
      <point x="631" y="109" type="qcurve"/>
      <point x="734" y="112"/>
      <point x="814" y="152" type="qcurve"/>
      <point x="896" y="196"/>
      <point x="939" y="273" type="qcurve"/>
      <point x="984" y="351"/>
      <point x="982" y="443" type="qcurve"/>
      <point x="984" y="584"/>
      <point x="882" y="674" type="qcurve"/>
      <point x="788" y="764"/>
      <point x="627" y="761" type="qcurve"/>
      <point x="459" y="764"/>
      <point x="305" y="652" type="qcurve"/>
      <point x="189" y="705" type="line"/>
      <point x="219" y="1456" type="line"/>
      <point x="1066" y="1456" type="line"/>
      <point x="1066" y="1312" type="line"/>
      <point x="367" y="1312" type="line"/>
      <point x="344" y="791" type="line"/>
      <point x="410" y="835"/>
      <point x="494" y="865" type="qcurve"/>
      <point x="578" y="896"/>
      <point x="662" y="896" type="qcurve"/>
      <point x="796" y="899"/>
      <point x="900" y="843" type="qcurve"/>
      <point x="1010" y="792"/>
      <point x="1072" y="689" type="qcurve"/>
      <point x="1141" y="588"/>
      <point x="1138" y="447" type="qcurve"/>
      <point x="1141" y="309"/>
      <point x="1072" y="201" type="qcurve"/>
      <point x="1010" y="95"/>
      <point x="890" y="33" type="qcurve"/>
      <point x="776" y="-24"/>
    </contour>
  </outline>
</glyph>
<glyph name="seven" format="2">
  <advance width="1268"/>
  <unicode hex="0037"/>
  <outline>
    <contour>
      <point x="929" y="1312" type="line"/>
      <point x="133" y="1312" type="line"/>
      <point x="133" y="1456" type="line"/>
      <point x="1101" y="1456" type="line"/>
      <point x="1101" y="1312" type="line"/>
      <point x="476" y="0" type="line"/>
      <point x="301" y="0" type="line"/>
    </contour>
  </outline>
</glyph>
<glyph name="nine" format="2">
  <advance width="1292"/>
  <unicode hex="0039"/>
  <outline>
    <contour>
      <point x="597" y="545" type="qcurve"/>
      <point x="510" y="545"/>
      <point x="424" y="571" type="qcurve"/>
      <point x="339" y="598"/>
      <point x="271" y="652" type="qcurve"/>
      <point x="204" y="708"/>
      <point x="159" y="792" type="qcurve"/>
      <point x="115" y="878"/>
      <point x="115" y="1000" type="qcurve"/>
      <point x="115" y="1058"/>
      <point x="137" y="1141" type="qcurve"/>
      <point x="160" y="1224"/>
      <point x="216" y="1299" type="qcurve"/>
      <point x="273" y="1374"/>
      <point x="371" y="1426" type="qcurve"/>
      <point x="470" y="1478"/>
      <point x="623" y="1478" type="qcurve"/>
      <point x="715" y="1479"/>
      <point x="813" y="1450" type="qcurve"/>
      <point x="912" y="1422"/>
      <point x="992" y="1341" type="qcurve"/>
      <point x="1072" y="1262"/>
      <point x="1124" y="1119" type="qcurve"/>
      <point x="1178" y="976"/>
      <point x="1177" y="748" type="qcurve"/>
      <point x="1178" y="580"/>
      <point x="1129" y="439" type="qcurve"/>
      <point x="1080" y="298"/>
      <point x="999" y="195" type="qcurve"/>
      <point x="919" y="93"/>
      <point x="812" y="35" type="qcurve"/>
      <point x="706" y="-22"/>
      <point x="588" y="-23" type="qcurve"/>
      <point x="434" y="-22"/>
      <point x="326" y="42" type="qcurve"/>
      <point x="220" y="108"/>
      <point x="174" y="150" type="qcurve"/>
      <point x="260" y="271" type="line"/>
      <point x="298" y="236"/>
      <point x="388" y="174" type="qcurve"/>
      <point x="478" y="114"/>
      <point x="597" y="113" type="qcurve"/>
      <point x="703" y="112"/>
      <point x="783" y="175" type="qcurve"/>
      <point x="864" y="238"/>
      <point x="917" y="334" type="qcurve"/>
      <point x="972" y="430"/>
      <point x="997" y="545" type="qcurve"/>
      <point x="1024" y="660"/>
      <point x="1023" y="765" type="qcurve"/>
      <point x="988" y="703"/>
      <point x="880" y="625" type="qcurve"/>
      <point x="774" y="548"/>
    </contour>
    <contour>
      <point x="629" y="1351" type="qcurve"/>
      <point x="532" y="1351"/>
      <point x="463" y="1311" type="qcurve"/>
      <point x="394" y="1272"/>
      <point x="351" y="1215" type="qcurve"/>
      <point x="308" y="1159"/>
      <point x="287" y="1098" type="qcurve"/>
      <point x="266" y="1038"/>
      <point x="266" y="1000" type="qcurve"/>
      <point x="266" y="909"/>
      <point x="305" y="847" type="qcurve"/>
      <point x="344" y="786"/>
      <point x="399" y="748" type="qcurve"/>
      <point x="455" y="712"/>
      <point x="517" y="694" type="qcurve"/>
      <point x="580" y="676"/>
      <point x="629" y="676" type="qcurve"/>
      <point x="758" y="676"/>
      <point x="865" y="750" type="qcurve"/>
      <point x="972" y="825"/>
      <point x="1002" y="955" type="qcurve"/>
      <point x="978" y="1080"/>
      <point x="932" y="1158" type="qcurve"/>
      <point x="888" y="1236"/>
      <point x="831" y="1279" type="qcurve"/>
      <point x="776" y="1322"/>
      <point x="721" y="1336" type="qcurve"/>
      <point x="667" y="1351"/>
    </contour>
  </outline>
</glyph>
<glyph name="colon" format="2">
  <advance width="487"/>
  <unicode hex="003A"/>
  <outline>
    <contour>
      <point x="248" y="777" type="qcurve"/>
      <point x="206" y="778"/>
      <point x="172" y="808" type="qcurve"/>
      <point x="139" y="838"/>
      <point x="139" y="882" type="qcurve"/>
      <point x="139" y="922"/>
      <point x="172" y="955" type="qcurve"/>
      <point x="206" y="986"/>
      <point x="248" y="986" type="qcurve"/>
      <point x="290" y="986"/>
      <point x="318" y="955" type="qcurve"/>
      <point x="348" y="922"/>
      <point x="348" y="882" type="qcurve"/>
      <point x="348" y="838"/>
      <point x="320" y="808" type="qcurve"/>
      <point x="292" y="778"/>
    </contour>
    <contour>
      <point x="248" y="-23" type="qcurve"/>
      <point x="206" y="-22"/>
      <point x="172" y="8" type="qcurve"/>
      <point x="139" y="42"/>
      <point x="139" y="84" type="qcurve"/>
      <point x="139" y="124"/>
      <point x="172" y="154" type="qcurve"/>
      <point x="206" y="184"/>
      <point x="248" y="184" type="qcurve"/>
      <point x="290" y="184"/>
      <point x="318" y="154" type="qcurve"/>
      <point x="348" y="124"/>
      <point x="348" y="84" type="qcurve"/>
      <point x="348" y="42"/>
      <point x="320" y="8" type="qcurve"/>
      <point x="292" y="-22"/>
    </contour>
  </outline>
</glyph>
<glyph name="semicolon" format="2">
  <advance width="508"/>
  <unicode hex="003B"/>
  <outline>
    <contour>
      <point x="151" y="-203" type="line"/>
      <point x="229" y="-113"/>
      <point x="253" y="-23" type="qcurve"/>
      <point x="211" y="-22"/>
      <point x="177" y="8" type="qcurve"/>
      <point x="147" y="42"/>
      <point x="147" y="84" type="qcurve"/>
      <point x="147" y="126"/>
      <point x="177" y="154" type="qcurve"/>
      <point x="209" y="184"/>
      <point x="253" y="184" type="qcurve"/>
      <point x="307" y="184"/>
      <point x="337" y="141" type="qcurve"/>
      <point x="370" y="99"/>
      <point x="370" y="31" type="qcurve"/>
      <point x="371" y="-25"/>
      <point x="339" y="-88" type="qcurve"/>
      <point x="309" y="-148"/>
      <point x="222" y="-256" type="qcurve"/>
    </contour>
    <contour>
      <point x="253" y="777" type="qcurve"/>
      <point x="209" y="778"/>
      <point x="177" y="808" type="qcurve"/>
      <point x="147" y="838"/>
      <point x="147" y="882" type="qcurve"/>
      <point x="147" y="922"/>
      <point x="177" y="955" type="qcurve"/>
      <point x="209" y="986"/>
      <point x="253" y="986" type="qcurve"/>
      <point x="295" y="986"/>
      <point x="325" y="955" type="qcurve"/>
      <point x="357" y="922"/>
      <point x="356" y="882" type="qcurve"/>
      <point x="357" y="838"/>
      <point x="327" y="808" type="qcurve"/>
      <point x="297" y="778"/>
    </contour>
  </outline>
</glyph>
<glyph name="question" format="2">
  <advance width="1083"/>
  <unicode hex="003F"/>
  <outline>
    <contour>
      <point x="416" y="781" type="line"/>
      <point x="598" y="781"/>
      <point x="722" y="875" type="qcurve"/>
      <point x="848" y="971"/>
      <point x="847" y="1091" type="qcurve"/>
      <point x="848" y="1210"/>
      <point x="762" y="1279" type="qcurve"/>
      <point x="676" y="1349"/>
      <point x="535" y="1349" type="qcurve"/>
      <point x="462" y="1350"/>
      <point x="401" y="1325" type="qcurve"/>
      <point x="341" y="1301"/>
      <point x="291" y="1268" type="qcurve"/>
      <point x="243" y="1236"/>
      <point x="205" y="1201" type="qcurve"/>
      <point x="168" y="1166"/>
      <point x="150" y="1144" type="qcurve"/>
      <point x="55" y="1238" type="line"/>
      <point x="254" y="1488"/>
      <point x="545" y="1488" type="qcurve"/>
      <point x="681" y="1488"/>
      <point x="783" y="1437" type="qcurve"/>
      <point x="886" y="1386"/>
      <point x="943" y="1294" type="qcurve"/>
      <point x="1000" y="1202"/>
      <point x="998" y="1091" type="qcurve"/>
      <point x="1001" y="1000"/>
      <point x="947" y="910" type="qcurve"/>
      <point x="895" y="824"/>
      <point x="791" y="758" type="qcurve"/>
      <point x="695" y="695"/>
      <point x="566" y="668" type="qcurve"/>
      <point x="566" y="390" type="line"/>
      <point x="416" y="390" type="line"/>
    </contour>
    <contour>
      <point x="492" y="0" type="qcurve"/>
      <point x="448" y="0"/>
      <point x="418" y="31" type="qcurve"/>
      <point x="388" y="63"/>
      <point x="387" y="105" type="qcurve"/>
      <point x="388" y="144"/>
      <point x="418" y="174" type="qcurve"/>
      <point x="448" y="206"/>
      <point x="492" y="205" type="qcurve"/>
      <point x="534" y="206"/>
      <point x="562" y="174" type="qcurve"/>
      <point x="592" y="144"/>
      <point x="592" y="105" type="qcurve"/>
      <point x="594" y="63"/>
      <point x="564" y="31" type="qcurve"/>
      <point x="534" y="0"/>
    </contour>
  </outline>
</glyph>
<glyph name="at" format="2">
  <advance width="1696"/>
  <unicode hex="0040"/>
  <outline>
    <contour>
      <point x="1107" y="193" type="qcurve"/>
      <point x="1064" y="234"/>
      <point x="1046" y="316" type="qcurve"/>
      <point x="989" y="241"/>
      <point x="908" y="197" type="qcurve"/>
      <point x="826" y="152"/>
      <point x="732" y="150" type="qcurve"/>
      <point x="592" y="152"/>
      <point x="502" y="244" type="qcurve"/>
      <point x="412" y="337"/>
      <point x="412" y="484" type="qcurve"/>
      <point x="412" y="616"/>
      <point x="478" y="724" type="qcurve"/>
      <point x="544" y="836"/>
      <point x="646" y="900" type="qcurve"/>
      <point x="751" y="969"/>
      <point x="863" y="966" type="qcurve"/>
      <point x="959" y="968"/>
      <point x="1025" y="922" type="qcurve"/>
      <point x="1095" y="880"/>
      <point x="1125" y="810" type="qcurve"/>
      <point x="1150" y="937" type="line"/>
      <point x="1279" y="927" type="line"/>
      <point x="1248" y="766"/>
      <point x="1248" y="763" type="qcurve"/>
      <point x="1179" y="414"/>
      <point x="1179" y="369" type="qcurve"/>
      <point x="1179" y="311"/>
      <point x="1215" y="279" type="qcurve"/>
      <point x="1254" y="249"/>
      <point x="1297" y="257" type="qcurve"/>
      <point x="1354" y="268"/>
      <point x="1405" y="302" type="qcurve"/>
      <point x="1456" y="338"/>
      <point x="1483" y="412" type="qcurve"/>
      <point x="1519" y="493"/>
      <point x="1519" y="615" type="qcurve"/>
      <point x="1522" y="771"/>
      <point x="1434" y="906" type="qcurve"/>
      <point x="1348" y="1046"/>
      <point x="1204" y="1126" type="qcurve"/>
      <point x="1060" y="1208"/>
      <point x="886" y="1207" type="qcurve"/>
      <point x="702" y="1210"/>
      <point x="538" y="1112" type="qcurve"/>
      <point x="380" y="1018"/>
      <point x="280" y="853" type="qcurve"/>
      <point x="186" y="692"/>
      <point x="183" y="500" type="qcurve"/>
      <point x="186" y="336"/>
      <point x="272" y="189" type="qcurve"/>
      <point x="359" y="49"/>
      <point x="506" y="-44" type="qcurve"/>
      <point x="656" y="-130"/>
      <point x="826" y="-131" type="qcurve"/>
      <point x="944" y="-131"/>
      <point x="1031" y="-105" type="qcurve"/>
      <point x="1128" y="-76"/>
      <point x="1251" y="-4" type="qcurve"/>
      <point x="1311" y="-100" type="line"/>
      <point x="1176" y="-186"/>
      <point x="1068" y="-217" type="qcurve"/>
      <point x="957" y="-247"/>
      <point x="822" y="-249" type="qcurve"/>
      <point x="616" y="-249"/>
      <point x="442" y="-147" type="qcurve"/>
      <point x="270" y="-47"/>
      <point x="162" y="123" type="qcurve"/>
      <point x="60" y="298"/>
      <point x="61" y="498" type="qcurve"/>
      <point x="62" y="720"/>
      <point x="173" y="911" type="qcurve"/>
      <point x="286" y="1102"/>
      <point x="475" y="1213" type="qcurve"/>
      <point x="668" y="1329"/>
      <point x="890" y="1327" type="qcurve"/>
      <point x="1088" y="1330"/>
      <point x="1262" y="1232" type="qcurve"/>
      <point x="1436" y="1134"/>
      <point x="1537" y="969" type="qcurve"/>
      <point x="1642" y="809"/>
      <point x="1641" y="615" type="qcurve"/>
      <point x="1641" y="462"/>
      <point x="1587" y="350" type="qcurve"/>
      <point x="1536" y="240"/>
      <point x="1449" y="182" type="qcurve"/>
      <point x="1366" y="125"/>
      <point x="1267" y="125" type="qcurve"/>
      <point x="1176" y="128"/>
    </contour>
    <contour>
      <point x="767" y="264" type="qcurve"/>
      <point x="900" y="266"/>
      <point x="984" y="359" type="qcurve"/>
      <point x="1068" y="454"/>
      <point x="1082" y="601" type="qcurve"/>
      <point x="1086" y="616"/>
      <point x="1084" y="644" type="qcurve"/>
      <point x="1087" y="743"/>
      <point x="1033" y="797" type="qcurve"/>
      <point x="981" y="854"/>
      <point x="877" y="853" type="qcurve"/>
      <point x="793" y="853"/>
      <point x="718" y="802" type="qcurve"/>
      <point x="643" y="754"/>
      <point x="599" y="670" type="qcurve"/>
      <point x="554" y="586"/>
      <point x="551" y="490" type="qcurve"/>
      <point x="552" y="391"/>
      <point x="609" y="328" type="qcurve"/>
      <point x="668" y="262"/>
    </contour>
  </outline>
</glyph>
<glyph name="K" format="2">
  <advance width="1270"/>
  <unicode hex="004B"/>
  <outline>
    <contour>
      <point x="176" y="1456" type="line"/>
      <point x="328" y="1456" type="line"/>
      <point x="328" y="767" type="line"/>
      <point x="1019" y="1456" type="line"/>
      <point x="1216" y="1456" type="line"/>
      <point x="504" y="748" type="line"/>
      <point x="1255" y="0" type="line"/>
      <point x="1058" y="0" type="line"/>
      <point x="328" y="728" type="line"/>
      <point x="328" y="0" type="line"/>
      <point x="176" y="0" type="line"/>
    </contour>
  </outline>
</glyph>
<glyph name="L" format="2">
  <advance width="1069"/>
  <unicode hex="004C"/>
  <outline>
    <contour>
      <point x="1004" y="141" type="line"/>
      <point x="1004" y="0" type="line"/>
      <point x="131" y="0" type="line"/>
      <point x="131" y="1456" type="line"/>
      <point x="283" y="1456" type="line"/>
      <point x="283" y="141" type="line"/>
    </contour>
  </outline>
</glyph>
<glyph name="N" format="2">
  <advance width="1565"/>
  <unicode hex="004E"/>
  <outline>
    <contour>
      <point x="180" y="1456" type="line"/>
      <point x="332" y="1456" type="line"/>
      <point x="1234" y="248" type="line"/>
      <point x="1234" y="1456" type="line"/>
      <point x="1384" y="1456" type="line"/>
      <point x="1384" y="0" type="line"/>
      <point x="1234" y="0" type="line"/>
      <point x="332" y="1210" type="line"/>
      <point x="332" y="0" type="line"/>
      <point x="180" y="0" type="line"/>
    </contour>
  </outline>
</glyph>
<glyph name="V" format="2">
  <advance width="1346"/>
  <unicode hex="0056"/>
  <outline>
    <contour>
      <point x="1120" y="1456" type="line"/>
      <point x="1282" y="1456" type="line"/>
      <point x="755" y="0" type="line"/>
      <point x="591" y="0" type="line"/>
      <point x="63" y="1456" type="line"/>
      <point x="225" y="1456" type="line"/>
      <point x="673" y="221" type="line"/>
    </contour>
  </outline>
</glyph>
<glyph name="bracketleft" format="2">
  <advance width="705"/>
  <unicode hex="005B"/>
  <outline>
    <contour>
      <point x="156" y="1456" type="line"/>
      <point x="626" y="1456" type="line"/>
      <point x="626" y="1343" type="line"/>
      <point x="285" y="1343" type="line"/>
      <point x="285" y="-225" type="line"/>
      <point x="626" y="-225" type="line"/>
      <point x="626" y="-335" type="line"/>
      <point x="156" y="-335" type="line"/>
    </contour>
  </outline>
</glyph>
<glyph name="bracketright" format="2">
  <advance width="705"/>
  <unicode hex="005D"/>
  <outline>
    <contour>
      <point x="96" y="-225" type="line"/>
      <point x="437" y="-225" type="line"/>
      <point x="437" y="1343" type="line"/>
      <point x="96" y="1343" type="line"/>
      <point x="96" y="1456" type="line"/>
      <point x="564" y="1456" type="line"/>
      <point x="564" y="-335" type="line"/>
      <point x="96" y="-335" type="line"/>
    </contour>
  </outline>
</glyph>
<glyph name="asciicircum" format="2">
  <advance width="944"/>
  <unicode hex="005E"/>
  <outline>
    <contour>
      <point x="416" y="1324" type="line"/>
      <point x="529" y="1324" type="line"/>
      <point x="840" y="797" type="line"/>
      <point x="715" y="797" type="line"/>
      <point x="474" y="1220" type="line"/>
      <point x="228" y="797" type="line"/>
      <point x="102" y="797" type="line"/>
    </contour>
  </outline>
</glyph>
<glyph name="b" format="2">
  <advance width="1229"/>
  <unicode hex="0062"/>
  <outline>
    <contour>
      <point x="624" y="892" type="qcurve"/>
      <point x="528" y="890"/>
      <point x="452" y="840" type="qcurve"/>
      <point x="375" y="792"/>
      <point x="333" y="703" type="qcurve"/>
      <point x="291" y="612"/>
      <point x="290" y="498" type="qcurve"/>
      <point x="291" y="382"/>
      <point x="333" y="295" type="qcurve"/>
      <point x="375" y="206"/>
      <point x="452" y="156" type="qcurve"/>
      <point x="528" y="105"/>
      <point x="624" y="107" type="qcurve"/>
      <point x="720" y="105"/>
      <point x="796" y="156" type="qcurve"/>
      <point x="875" y="206"/>
      <point x="917" y="295" type="qcurve"/>
      <point x="959" y="382"/>
      <point x="958" y="498" type="qcurve"/>
      <point x="959" y="612"/>
      <point x="917" y="701" type="qcurve"/>
      <point x="875" y="789"/>
      <point x="799" y="840" type="qcurve"/>
      <point x="719" y="890"/>
    </contour>
    <contour>
      <point x="145" y="0" type="line"/>
      <point x="145" y="1456" type="line"/>
      <point x="290" y="1456" type="line"/>
      <point x="290" y="810" type="line"/>
      <point x="345" y="906"/>
      <point x="438" y="962" type="qcurve"/>
      <point x="533" y="1019"/>
      <point x="651" y="1019" type="qcurve"/>
      <point x="780" y="1022"/>
      <point x="885" y="953" type="qcurve"/>
      <point x="989" y="887"/>
      <point x="1051" y="767" type="qcurve"/>
      <point x="1111" y="644"/>
      <point x="1112" y="498" type="qcurve"/>
      <point x="1111" y="348"/>
      <point x="1051" y="230" type="qcurve"/>
      <point x="989" y="110"/>
      <point x="887" y="43" type="qcurve"/>
      <point x="781" y="-25"/>
      <point x="651" y="-25" type="qcurve"/>
      <point x="535" y="-26"/>
      <point x="441" y="30" type="qcurve"/>
      <point x="347" y="87"/>
      <point x="290" y="187" type="qcurve"/>
      <point x="290" y="0" type="line"/>
    </contour>
  </outline>
</glyph>
<glyph name="n" format="2">
  <advance width="1141"/>
  <unicode hex="006E"/>
  <outline>
    <contour>
      <point x="620" y="1021" type="qcurve"/>
      <point x="729" y="1024"/>
      <point x="813" y="972" type="qcurve"/>
      <point x="901" y="926"/>
      <point x="946" y="836" type="qcurve"/>
      <point x="996" y="750"/>
      <point x="993" y="636" type="qcurve"/>
      <point x="993" y="0" type="line"/>
      <point x="850" y="0" type="line"/>
      <point x="850" y="615" type="line"/>
      <point x="850" y="738"/>
      <point x="780" y="814" type="qcurve"/>
      <point x="713" y="892"/>
      <point x="602" y="890" type="qcurve"/>
      <point x="521" y="890"/>
      <point x="448" y="857" type="qcurve"/>
      <point x="377" y="824"/>
      <point x="333" y="761" type="qcurve"/>
      <point x="293" y="705"/>
      <point x="292" y="636" type="qcurve"/>
      <point x="292" y="0" type="line"/>
      <point x="147" y="0" type="line"/>
      <point x="147" y="996" type="line"/>
      <point x="292" y="996" type="line"/>
      <point x="292" y="836" type="line"/>
      <point x="335" y="917"/>
      <point x="425" y="968" type="qcurve"/>
      <point x="517" y="1022"/>
    </contour>
  </outline>
</glyph>
<glyph name="braceleft" format="2">
  <advance width="758"/>
  <unicode hex="007B"/>
  <outline>
    <contour>
      <point x="254" y="578" type="qcurve"/>
      <point x="332" y="550"/>
      <point x="365" y="498" type="qcurve"/>
      <point x="398" y="444"/>
      <point x="400" y="359" type="qcurve"/>
      <point x="398" y="14" type="line"/>
      <point x="398" y="-66"/>
      <point x="418" y="-107" type="qcurve"/>
      <point x="442" y="-150"/>
      <point x="496" y="-174" type="qcurve"/>
      <point x="554" y="-200"/>
      <point x="672" y="-215" type="qcurve"/>
      <point x="660" y="-320" type="line"/>
      <point x="513" y="-302"/>
      <point x="426" y="-264" type="qcurve"/>
      <point x="340" y="-230"/>
      <point x="305" y="-162" type="qcurve"/>
      <point x="273" y="-98"/>
      <point x="273" y="6" type="qcurve"/>
      <point x="273" y="342" type="line"/>
      <point x="273" y="440"/>
      <point x="228" y="484" type="qcurve"/>
      <point x="188" y="526"/>
      <point x="84" y="525" type="qcurve"/>
      <point x="84" y="631" type="line"/>
      <point x="188" y="632"/>
      <point x="228" y="672" type="qcurve"/>
      <point x="273" y="718"/>
      <point x="273" y="814" type="qcurve"/>
      <point x="273" y="1150" type="line"/>
      <point x="273" y="1255"/>
      <point x="305" y="1318" type="qcurve"/>
      <point x="340" y="1387"/>
      <point x="426" y="1421" type="qcurve"/>
      <point x="513" y="1460"/>
      <point x="660" y="1476" type="qcurve"/>
      <point x="672" y="1374" type="line"/>
      <point x="554" y="1358"/>
      <point x="496" y="1330" type="qcurve"/>
      <point x="442" y="1306"/>
      <point x="418" y="1263" type="qcurve"/>
      <point x="398" y="1223"/>
      <point x="398" y="1142" type="qcurve"/>
      <point x="400" y="797" type="line"/>
      <point x="398" y="714"/>
      <point x="365" y="658" type="qcurve"/>
      <point x="329" y="610"/>
    </contour>
  </outline>
</glyph>
<glyph name="bar" format="2">
  <advance width="535"/>
  <unicode hex="007C"/>
  <outline>
    <contour>
      <point x="211" y="1455" type="line"/>
      <point x="326" y="1455" type="line"/>
      <point x="326" y="-141" type="line"/>
      <point x="211" y="-141" type="line"/>
    </contour>
  </outline>
</glyph>
<glyph name="cent" format="2">
  <advance width="1044"/>
  <unicode hex="00A2"/>
  <outline>
    <contour>
      <point x="970" y="129" type="qcurve"/>
      <point x="906" y="66"/>
      <point x="828" y="27" type="qcurve"/>
      <point x="750" y="-8"/>
      <point x="660" y="-20" type="qcurve"/>
      <point x="660" y="-141" type="line"/>
      <point x="508" y="-141" type="line"/>
      <point x="508" y="-14" type="line"/>
      <point x="394" y="12"/>
      <point x="297" y="86" type="qcurve"/>
      <point x="205" y="161"/>
      <point x="148" y="269" type="qcurve"/>
      <point x="94" y="378"/>
      <point x="94" y="498" type="qcurve"/>
      <point x="92" y="620"/>
      <point x="146" y="728" type="qcurve"/>
      <point x="202" y="836"/>
      <point x="295" y="912" type="qcurve"/>
      <point x="394" y="988"/>
      <point x="508" y="1011" type="qcurve"/>
      <point x="508" y="1136" type="line"/>
      <point x="660" y="1136" type="line"/>
      <point x="660" y="1019" type="line"/>
      <point x="746" y="1014"/>
      <point x="824" y="972" type="qcurve"/>
      <point x="902" y="936"/>
      <point x="964" y="873" type="qcurve"/>
      <point x="865" y="775" type="line"/>
      <point x="782" y="870"/>
      <point x="660" y="886" type="qcurve"/>
      <point x="660" y="109" type="line"/>
      <point x="783" y="134"/>
      <point x="869" y="228" type="qcurve"/>
      <point x="900" y="198"/>
      <point x="918" y="179" type="qcurve"/>
      <point x="938" y="161"/>
    </contour>
    <contour>
      <point x="246" y="498" type="qcurve"/>
      <point x="244" y="369"/>
      <point x="320" y="264" type="qcurve"/>
      <point x="396" y="160"/>
      <point x="508" y="121" type="qcurve"/>
      <point x="508" y="875" type="line"/>
      <point x="396" y="840"/>
      <point x="320" y="734" type="qcurve"/>
      <point x="244" y="630"/>
    </contour>
  </outline>
</glyph>
<glyph name="paragraph" format="2">
  <advance width="1276"/>
  <unicode hex="00B6"/>
  <outline>
    <contour>
      <point x="566" y="637" type="line"/>
      <point x="416" y="640"/>
      <point x="304" y="688" type="qcurve"/>
      <point x="196" y="742"/>
      <point x="132" y="834" type="qcurve"/>
      <point x="72" y="924"/>
      <point x="72" y="1045" type="qcurve"/>
      <point x="72" y="1166"/>
      <point x="130" y="1258" type="qcurve"/>
      <point x="190" y="1354"/>
      <point x="293" y="1402" type="qcurve"/>
      <point x="396" y="1456"/>
      <point x="528" y="1456" type="qcurve"/>
      <point x="1066" y="1456" type="line"/>
      <point x="1066" y="-109" type="line"/>
      <point x="950" y="-109" type="line"/>
      <point x="950" y="1350" type="line"/>
      <point x="685" y="1350" type="line"/>
      <point x="685" y="-109" type="line"/>
      <point x="566" y="-109" type="line"/>
    </contour>
  </outline>
</glyph>
<glyph name="Agrave" format="2">
  <advance width="1352"/>
  <unicode hex="00C0"/>
  <outline>
    <contour>
      <point x="596" y="1456" type="line"/>
      <point x="760" y="1456" type="line"/>
      <point x="1288" y="0" type="line"/>
      <point x="1127" y="0" type="line"/>
      <point x="977" y="418" type="line"/>
      <point x="378" y="418" type="line"/>
      <point x="225" y="0" type="line"/>
      <point x="63" y="0" type="line"/>
    </contour>
    <contour>
      <point x="678" y="1234" type="line"/>
      <point x="429" y="558" type="line"/>
      <point x="926" y="558" type="line"/>
    </contour>
    <contour>
      <point x="481" y="1800" type="line"/>
      <point x="635" y="1835" type="line"/>
      <point x="866" y="1558" type="line"/>
      <point x="755" y="1558" type="line"/>
    </contour>
  </outline>
</glyph>
<glyph name="Ccedilla" format="2">
  <advance width="1421"/>
  <unicode hex="00C7"/>
  <outline>
    <contour>
      <point x="845" y="1478" type="qcurve"/>
      <point x="1046" y="1480"/>
      <point x="1212" y="1378" type="qcurve"/>
      <point x="1298" y="1324"/>
      <point x="1367" y="1255" type="qcurve"/>
      <point x="1261" y="1148" type="line"/>
      <point x="1206" y="1202"/>
      <point x="1138" y="1244" type="qcurve"/>
      <point x="1000" y="1328"/>
      <point x="845" y="1326" type="qcurve"/>
      <point x="692" y="1328"/>
      <point x="551" y="1246" type="qcurve"/>
      <point x="482" y="1204"/>
      <point x="429" y="1152" type="qcurve"/>
      <point x="376" y="1101"/>
      <point x="334" y="1029" type="qcurve"/>
      <point x="254" y="887"/>
      <point x="254" y="728" type="qcurve"/>
      <point x="251" y="574"/>
      <point x="332" y="433" type="qcurve"/>
      <point x="376" y="364"/>
      <point x="427" y="310" type="qcurve"/>
      <point x="480" y="256"/>
      <point x="549" y="213" type="qcurve"/>
      <point x="690" y="127"/>
      <point x="845" y="129" type="qcurve"/>
      <point x="998" y="127"/>
      <point x="1136" y="213" type="qcurve"/>
      <point x="1205" y="254"/>
      <point x="1259" y="308" type="qcurve"/>
      <point x="1365" y="201" type="line"/>
      <point x="1301" y="136"/>
      <point x="1214" y="82" type="qcurve"/>
      <point x="1046" y="-20"/>
      <point x="845" y="-23" type="qcurve"/>
      <point x="649" y="-22"/>
      <point x="478" y="80" type="qcurve"/>
      <point x="306" y="184"/>
      <point x="203" y="355" type="qcurve"/>
      <point x="98" y="527"/>
      <point x="98" y="728" type="qcurve"/>
      <point x="98" y="932"/>
      <point x="203" y="1101" type="qcurve"/>
      <point x="308" y="1274"/>
      <point x="476" y="1376" type="qcurve"/>
      <point x="648" y="1481"/>
    </contour>
    <contour>
      <point x="779" y="-234" type="qcurve"/>
      <point x="839" y="-232"/>
      <point x="875" y="-266" type="qcurve"/>
      <point x="917" y="-300"/>
      <point x="914" y="-359" type="qcurve"/>
      <point x="914" y="-428"/>
      <point x="859" y="-472" type="qcurve"/>
      <point x="806" y="-514"/>
      <point x="724" y="-515" type="qcurve"/>
      <point x="679" y="-515"/>
      <point x="631" y="-500" type="qcurve"/>
      <point x="584" y="-484"/>
      <point x="554" y="-461" type="qcurve"/>
      <point x="590" y="-381" type="line"/>
      <point x="648" y="-423"/>
      <point x="718" y="-426" type="qcurve"/>
      <point x="758" y="-426"/>
      <point x="785" y="-406" type="qcurve"/>
      <point x="815" y="-382"/>
      <point x="812" y="-353" type="qcurve"/>
      <point x="814" y="-321"/>
      <point x="793" y="-305" type="qcurve"/>
      <point x="774" y="-284"/>
      <point x="736" y="-285" type="qcurve"/>
      <point x="702" y="-284"/>
      <point x="672" y="-308" type="qcurve"/>
      <point x="642" y="-275" type="line"/>
      <point x="705" y="-125" type="line"/>
      <point x="804" y="-125" type="line"/>
      <point x="758" y="-236" type="line"/>
      <point x="767" y="-232"/>
    </contour>
  </outline>
</glyph>
<glyph name="Ecircumflex" format="2">
  <advance width="1208"/>
  <unicode hex="00CA"/>
  <outline>
    <contour>
      <point x="303" y="1312" type="line"/>
      <point x="303" y="812" type="line"/>
      <point x="1025" y="812" type="line"/>
      <point x="1025" y="670" type="line"/>
      <point x="303" y="670" type="line"/>
      <point x="303" y="141" type="line"/>
      <point x="1103" y="141" type="line"/>
      <point x="1103" y="0" type="line"/>
      <point x="152" y="0" type="line"/>
      <point x="152" y="1456" type="line"/>
      <point x="1103" y="1456" type="line"/>
      <point x="1103" y="1312" type="line"/>
    </contour>
    <contour>
      <point x="558" y="1822" type="line"/>
      <point x="693" y="1822" type="line"/>
      <point x="890" y="1558" type="line"/>
      <point x="777" y="1558" type="line"/>
      <point x="625" y="1722" type="line"/>
      <point x="476" y="1558" type="line"/>
      <point x="365" y="1558" type="line"/>
    </contour>
  </outline>
</glyph>
<glyph name="Igrave" format="2">
  <advance width="455"/>
  <unicode hex="00CC"/>
  <outline>
    <contour>
      <point x="152" y="1456" type="line"/>
      <point x="301" y="1456" type="line"/>
      <point x="301" y="0" type="line"/>
      <point x="152" y="0" type="line"/>
    </contour>
    <contour>
      <point x="33" y="1800" type="line"/>
      <point x="187" y="1835" type="line"/>
      <point x="418" y="1558" type="line"/>
      <point x="308" y="1558" type="line"/>
    </contour>
  </outline>
</glyph>
<glyph name="Oacute" format="2">
  <advance width="1702"/>
  <unicode hex="00D3"/>
  <outline>
    <contour>
      <point x="845" y="-23" type="qcurve"/>
      <point x="649" y="-22"/>
      <point x="478" y="80" type="qcurve"/>
      <point x="306" y="184"/>
      <point x="203" y="355" type="qcurve"/>
      <point x="98" y="527"/>
      <point x="98" y="728" type="qcurve"/>
      <point x="98" y="932"/>
      <point x="203" y="1101" type="qcurve"/>
      <point x="308" y="1274"/>
      <point x="476" y="1376" type="qcurve"/>
      <point x="648" y="1481"/>
      <point x="845" y="1478" type="qcurve"/>
      <point x="1046" y="1480"/>
      <point x="1212" y="1378" type="qcurve"/>
      <point x="1380" y="1276"/>
      <point x="1484" y="1103" type="qcurve"/>
      <point x="1588" y="934"/>
      <point x="1585" y="728" type="qcurve"/>
      <point x="1588" y="527"/>
      <point x="1484" y="355" type="qcurve"/>
      <point x="1385" y="187"/>
      <point x="1214" y="82" type="qcurve"/>
      <point x="1046" y="-20"/>
    </contour>
    <contour>
      <point x="845" y="129" type="qcurve"/>
      <point x="996" y="132"/>
      <point x="1136" y="213" type="qcurve"/>
      <point x="1276" y="295"/>
      <point x="1353" y="433" type="qcurve"/>
      <point x="1436" y="574"/>
      <point x="1433" y="728" type="qcurve"/>
      <point x="1434" y="882"/>
      <point x="1353" y="1025" type="qcurve"/>
      <point x="1276" y="1164"/>
      <point x="1138" y="1244" type="qcurve"/>
      <point x="998" y="1326"/>
      <point x="845" y="1326" type="qcurve"/>
      <point x="692" y="1328"/>
      <point x="551" y="1246" type="qcurve"/>
      <point x="482" y="1204"/>
      <point x="429" y="1152" type="qcurve"/>
      <point x="376" y="1101"/>
      <point x="334" y="1029" type="qcurve"/>
      <point x="254" y="887"/>
      <point x="254" y="728" type="qcurve"/>
      <point x="251" y="574"/>
      <point x="332" y="433" type="qcurve"/>
      <point x="376" y="364"/>
      <point x="427" y="310" type="qcurve"/>
      <point x="480" y="256"/>
      <point x="549" y="213" type="qcurve"/>
      <point x="690" y="127"/>
    </contour>
    <contour>
      <point x="884" y="1859" type="line"/>
      <point x="1035" y="1824" type="line"/>
      <point x="763" y="1583" type="line"/>
      <point x="650" y="1583" type="line"/>
    </contour>
  </outline>
</glyph>
<glyph name="Otilde" format="2">
  <advance width="1702"/>
  <unicode hex="00D5"/>
  <outline>
    <contour>
      <point x="845" y="-23" type="qcurve"/>
      <point x="649" y="-22"/>
      <point x="478" y="80" type="qcurve"/>
      <point x="306" y="184"/>
      <point x="203" y="355" type="qcurve"/>
      <point x="98" y="527"/>
      <point x="98" y="728" type="qcurve"/>
      <point x="98" y="932"/>
      <point x="203" y="1101" type="qcurve"/>
      <point x="308" y="1274"/>
      <point x="476" y="1376" type="qcurve"/>
      <point x="648" y="1481"/>
      <point x="845" y="1478" type="qcurve"/>
      <point x="1046" y="1480"/>
      <point x="1212" y="1378" type="qcurve"/>
      <point x="1380" y="1276"/>
      <point x="1484" y="1103" type="qcurve"/>
      <point x="1588" y="934"/>
      <point x="1585" y="728" type="qcurve"/>
      <point x="1588" y="527"/>
      <point x="1484" y="355" type="qcurve"/>
      <point x="1385" y="187"/>
      <point x="1214" y="82" type="qcurve"/>
      <point x="1046" y="-20"/>
    </contour>
    <contour>
      <point x="845" y="129" type="qcurve"/>
      <point x="996" y="132"/>
      <point x="1136" y="213" type="qcurve"/>
      <point x="1276" y="295"/>
      <point x="1353" y="433" type="qcurve"/>
      <point x="1436" y="574"/>
      <point x="1433" y="728" type="qcurve"/>
      <point x="1434" y="882"/>
      <point x="1353" y="1025" type="qcurve"/>
      <point x="1276" y="1164"/>
      <point x="1138" y="1244" type="qcurve"/>
      <point x="998" y="1326"/>
      <point x="845" y="1326" type="qcurve"/>
      <point x="692" y="1328"/>
      <point x="551" y="1246" type="qcurve"/>
      <point x="482" y="1204"/>
      <point x="429" y="1152" type="qcurve"/>
      <point x="376" y="1101"/>
      <point x="334" y="1029" type="qcurve"/>
      <point x="254" y="887"/>
      <point x="254" y="728" type="qcurve"/>
      <point x="251" y="574"/>
      <point x="332" y="433" type="qcurve"/>
      <point x="376" y="364"/>
      <point x="427" y="310" type="qcurve"/>
      <point x="480" y="256"/>
      <point x="549" y="213" type="qcurve"/>
      <point x="690" y="127"/>
    </contour>
    <contour>
      <point x="968" y="1587" type="qcurve"/>
      <point x="928" y="1585"/>
      <point x="896" y="1603" type="qcurve"/>
      <point x="868" y="1624"/>
      <point x="818" y="1658" type="qcurve"/>
      <point x="790" y="1690"/>
      <point x="765" y="1702" type="qcurve"/>
      <point x="744" y="1717"/>
      <point x="718" y="1714" type="qcurve"/>
      <point x="684" y="1714"/>
      <point x="658" y="1683" type="qcurve"/>
      <point x="634" y="1652"/>
      <point x="621" y="1583" type="qcurve"/>
      <point x="533" y="1595" type="line"/>
      <point x="565" y="1824"/>
      <point x="718" y="1824" type="qcurve"/>
      <point x="757" y="1828"/>
      <point x="787" y="1808" type="qcurve"/>
      <point x="820" y="1790"/>
      <point x="867" y="1753" type="qcurve"/>
      <point x="900" y="1724"/>
      <point x="920" y="1712" type="qcurve"/>
      <point x="946" y="1700"/>
      <point x="968" y="1699" type="qcurve"/>
      <point x="1008" y="1700"/>
      <point x="1029" y="1730" type="qcurve"/>
      <point x="1052" y="1762"/>
      <point x="1064" y="1829" type="qcurve"/>
      <point x="1152" y="1816" type="line"/>
      <point x="1122" y="1590"/>
    </contour>
  </outline>
</glyph>
<glyph name="Odieresis" format="2">
  <advance width="1702"/>
  <unicode hex="00D6"/>
  <outline>
    <contour>
      <point x="845" y="-23" type="qcurve"/>
      <point x="649" y="-22"/>
      <point x="478" y="80" type="qcurve"/>
      <point x="306" y="184"/>
      <point x="203" y="355" type="qcurve"/>
      <point x="98" y="527"/>
      <point x="98" y="728" type="qcurve"/>
      <point x="98" y="932"/>
      <point x="203" y="1101" type="qcurve"/>
      <point x="308" y="1274"/>
      <point x="476" y="1376" type="qcurve"/>
      <point x="648" y="1481"/>
      <point x="845" y="1478" type="qcurve"/>
      <point x="1046" y="1480"/>
      <point x="1212" y="1378" type="qcurve"/>
      <point x="1380" y="1276"/>
      <point x="1484" y="1103" type="qcurve"/>
      <point x="1588" y="934"/>
      <point x="1585" y="728" type="qcurve"/>
      <point x="1588" y="527"/>
      <point x="1484" y="355" type="qcurve"/>
      <point x="1385" y="187"/>
      <point x="1214" y="82" type="qcurve"/>
      <point x="1046" y="-20"/>
    </contour>
    <contour>
      <point x="845" y="129" type="qcurve"/>
      <point x="996" y="132"/>
      <point x="1136" y="213" type="qcurve"/>
      <point x="1276" y="295"/>
      <point x="1353" y="433" type="qcurve"/>
      <point x="1436" y="574"/>
      <point x="1433" y="728" type="qcurve"/>
      <point x="1434" y="882"/>
      <point x="1353" y="1025" type="qcurve"/>
      <point x="1276" y="1164"/>
      <point x="1138" y="1244" type="qcurve"/>
      <point x="998" y="1326"/>
      <point x="845" y="1326" type="qcurve"/>
      <point x="692" y="1328"/>
      <point x="551" y="1246" type="qcurve"/>
      <point x="482" y="1204"/>
      <point x="429" y="1152" type="qcurve"/>
      <point x="376" y="1101"/>
      <point x="334" y="1029" type="qcurve"/>
      <point x="254" y="887"/>
      <point x="254" y="728" type="qcurve"/>
      <point x="251" y="574"/>
      <point x="332" y="433" type="qcurve"/>
      <point x="376" y="364"/>
      <point x="427" y="310" type="qcurve"/>
      <point x="480" y="256"/>
      <point x="549" y="213" type="qcurve"/>
      <point x="690" y="127"/>
    </contour>
    <contour>
      <point x="656" y="1761" type="qcurve"/>
      <point x="693" y="1762"/>
      <point x="719" y="1735" type="qcurve"/>
      <point x="746" y="1708"/>
      <point x="746" y="1671" type="qcurve"/>
      <point x="746" y="1636"/>
      <point x="720" y="1609" type="qcurve"/>
      <point x="694" y="1583"/>
      <point x="656" y="1583" type="qcurve"/>
      <point x="620" y="1582"/>
      <point x="594" y="1608" type="qcurve"/>
      <point x="568" y="1635"/>
      <point x="568" y="1671" type="qcurve"/>
      <point x="568" y="1708"/>
      <point x="593" y="1734" type="qcurve"/>
      <point x="620" y="1761"/>
    </contour>
    <contour>
      <point x="1027" y="1761" type="qcurve"/>
      <point x="1064" y="1762"/>
      <point x="1090" y="1735" type="qcurve"/>
      <point x="1117" y="1708"/>
      <point x="1117" y="1673" type="qcurve"/>
      <point x="1118" y="1637"/>
      <point x="1091" y="1610" type="qcurve"/>
      <point x="1064" y="1583"/>
      <point x="1027" y="1583" type="qcurve"/>
      <point x="992" y="1582"/>
      <point x="966" y="1609" type="qcurve"/>
      <point x="942" y="1636"/>
      <point x="941" y="1673" type="qcurve"/>
      <point x="941" y="1708"/>
      <point x="965" y="1734" type="qcurve"/>
      <point x="991" y="1761"/>
    </contour>
  </outline>
</glyph>
<glyph name="multiply" format="2">
  <advance width="1042"/>
  <unicode hex="00D7"/>
  <outline>
    <contour>
      <point x="625" y="646" type="line"/>
      <point x="884" y="383" type="line"/>
      <point x="783" y="283" type="line"/>
      <point x="523" y="543" type="line"/>
      <point x="260" y="283" type="line"/>
      <point x="158" y="381" type="line"/>
      <point x="420" y="644" type="line"/>
      <point x="158" y="906" type="line"/>
      <point x="260" y="1009" type="line"/>
      <point x="523" y="746" type="line"/>
      <point x="785" y="1009" type="line"/>
      <point x="884" y="906" type="line"/>
    </contour>
  </outline>
</glyph>
<glyph name="Udieresis" format="2">
  <advance width="1438"/>
  <unicode hex="00DC"/>
  <outline>
    <contour>
      <point x="720" y="-23" type="qcurve"/>
      <point x="564" y="-23"/>
      <point x="435" y="51" type="qcurve"/>
      <point x="308" y="128"/>
      <point x="238" y="254" type="qcurve"/>
      <point x="169" y="388"/>
      <point x="166" y="549" type="qcurve"/>
      <point x="166" y="1456" type="line"/>
      <point x="316" y="1456" type="line"/>
      <point x="316" y="549" type="line"/>
      <point x="316" y="426"/>
      <point x="369" y="326" type="qcurve"/>
      <point x="420" y="228"/>
      <point x="510" y="170" type="qcurve"/>
      <point x="603" y="116"/>
      <point x="720" y="113" type="qcurve"/>
      <point x="834" y="116"/>
      <point x="925" y="170" type="qcurve"/>
      <point x="1018" y="226"/>
      <point x="1070" y="324" type="qcurve"/>
      <point x="1124" y="424"/>
      <point x="1121" y="549" type="qcurve"/>
      <point x="1121" y="1456" type="line"/>
      <point x="1271" y="1456" type="line"/>
      <point x="1271" y="549" type="line"/>
      <point x="1275" y="388"/>
      <point x="1203" y="254" type="qcurve"/>
      <point x="1136" y="128"/>
      <point x="1007" y="51" type="qcurve"/>
      <point x="878" y="-23"/>
    </contour>
    <contour>
      <point x="533" y="1736" type="qcurve"/>
      <point x="570" y="1736"/>
      <point x="596" y="1710" type="qcurve"/>
      <point x="623" y="1684"/>
      <point x="623" y="1646" type="qcurve"/>
      <point x="624" y="1610"/>
      <point x="597" y="1584" type="qcurve"/>
      <point x="570" y="1558"/>
      <point x="533" y="1558" type="qcurve"/>
      <point x="498" y="1558"/>
      <point x="471" y="1583" type="qcurve"/>
      <point x="445" y="1610"/>
      <point x="445" y="1646" type="qcurve"/>
      <point x="444" y="1683"/>
      <point x="470" y="1709" type="qcurve"/>
      <point x="497" y="1736"/>
    </contour>
    <contour>
      <point x="904" y="1736" type="qcurve"/>
      <point x="941" y="1736"/>
      <point x="967" y="1710" type="qcurve"/>
      <point x="994" y="1684"/>
      <point x="994" y="1648" type="qcurve"/>
      <point x="994" y="1612"/>
      <point x="968" y="1585" type="qcurve"/>
      <point x="942" y="1558"/>
      <point x="904" y="1558" type="qcurve"/>
      <point x="868" y="1558"/>
      <point x="843" y="1584" type="qcurve"/>
      <point x="818" y="1612"/>
      <point x="818" y="1648" type="qcurve"/>
      <point x="818" y="1683"/>
      <point x="842" y="1709" type="qcurve"/>
      <point x="868" y="1736"/>
    </contour>
  </outline>
</glyph>
<glyph name="germandbls" format="2">
  <advance width="1110"/>
  <unicode hex="00DF"/>
  <outline>
    <contour>
      <point x="162" y="1015" type="line"/>
      <point x="160" y="1115"/>
      <point x="213" y="1193" type="qcurve"/>
      <point x="267" y="1276"/>
      <point x="357" y="1318" type="qcurve"/>
      <point x="450" y="1363"/>
      <point x="566" y="1363" type="qcurve"/>
      <point x="682" y="1363"/>
      <point x="771" y="1318" type="qcurve"/>
      <point x="862" y="1276"/>
      <point x="914" y="1195" type="qcurve"/>
      <point x="968" y="1115"/>
      <point x="966" y="1015" type="qcurve"/>
      <point x="969" y="814"/>
      <point x="777" y="703" type="qcurve"/>
      <point x="892" y="648"/>
      <point x="955" y="560" type="qcurve"/>
      <point x="1022" y="474"/>
      <point x="1019" y="363" type="qcurve"/>
      <point x="1022" y="260"/>
      <point x="968" y="176" type="qcurve"/>
      <point x="920" y="95"/>
      <point x="830" y="47" type="qcurve"/>
      <point x="742" y="0"/>
      <point x="625" y="0" type="qcurve"/>
      <point x="457" y="0" type="line"/>
      <point x="457" y="135" type="line"/>
      <point x="586" y="135" type="line"/>
      <point x="709" y="136"/>
      <point x="787" y="205" type="qcurve"/>
      <point x="870" y="276"/>
      <point x="867" y="381" type="qcurve"/>
      <point x="870" y="490"/>
      <point x="789" y="558" type="qcurve"/>
      <point x="712" y="627"/>
      <point x="586" y="627" type="qcurve"/>
      <point x="457" y="627" type="line"/>
      <point x="457" y="763" type="line"/>
      <point x="564" y="763" type="line"/>
      <point x="636" y="763"/>
      <point x="689" y="795" type="qcurve"/>
      <point x="748" y="826"/>
      <point x="781" y="877" type="qcurve"/>
      <point x="814" y="934"/>
      <point x="814" y="994" type="qcurve"/>
      <point x="816" y="1098"/>
      <point x="744" y="1160" type="qcurve"/>
      <point x="675" y="1226"/>
      <point x="564" y="1226" type="qcurve"/>
      <point x="456" y="1229"/>
      <point x="383" y="1160" type="qcurve"/>
      <point x="312" y="1096"/>
      <point x="312" y="990" type="qcurve"/>
      <point x="312" y="0" type="line"/>
      <point x="162" y="0" type="line"/>
    </contour>
  </outline>
</glyph>
<glyph name="iacute" format="2">
  <advance width="434"/>
  <unicode hex="00ED"/>
  <outline>
    <contour>
      <point x="144" y="996" type="line"/>
      <point x="289" y="996" type="line"/>
      <point x="289" y="0" type="line"/>
      <point x="144" y="0" type="line"/>
    </contour>
    <contour>
      <point x="258" y="1375" type="line"/>
      <point x="409" y="1340" type="line"/>
      <point x="137" y="1098" type="line"/>
      <point x="24" y="1098" type="line"/>
    </contour>
  </outline>
</glyph>
<glyph name="idieresis" format="2">
  <advance width="434"/>
  <unicode hex="00EF"/>
  <outline>
    <contour>
      <point x="144" y="996" type="line"/>
      <point x="289" y="996" type="line"/>
      <point x="289" y="0" type="line"/>
      <point x="144" y="0" type="line"/>
    </contour>
    <contour>
      <point x="30" y="1276" type="qcurve"/>
      <point x="68" y="1276"/>
      <point x="93" y="1250" type="qcurve"/>
      <point x="120" y="1224"/>
      <point x="120" y="1186" type="qcurve"/>
      <point x="122" y="1150"/>
      <point x="94" y="1124" type="qcurve"/>
      <point x="68" y="1098"/>
      <point x="30" y="1098" type="qcurve"/>
      <point x="-4" y="1098"/>
      <point x="-32" y="1123" type="qcurve"/>
      <point x="-58" y="1150"/>
      <point x="-58" y="1186" type="qcurve"/>
      <point x="-58" y="1224"/>
      <point x="-33" y="1249" type="qcurve"/>
      <point x="-6" y="1276"/>
    </contour>
    <contour>
      <point x="401" y="1276" type="qcurve"/>
      <point x="438" y="1276"/>
      <point x="464" y="1250" type="qcurve"/>
      <point x="491" y="1224"/>
      <point x="491" y="1188" type="qcurve"/>
      <point x="492" y="1152"/>
      <point x="465" y="1125" type="qcurve"/>
      <point x="440" y="1098"/>
      <point x="401" y="1098" type="qcurve"/>
      <point x="366" y="1098"/>
      <point x="340" y="1124" type="qcurve"/>
      <point x="316" y="1152"/>
      <point x="315" y="1188" type="qcurve"/>
      <point x="315" y="1224"/>
      <point x="339" y="1249" type="qcurve"/>
      <point x="366" y="1276"/>
    </contour>
  </outline>
</glyph>
<glyph name="ntilde" format="2">
  <advance width="1141"/>
  <unicode hex="00F1"/>
  <outline>
    <contour>
      <point x="620" y="1021" type="qcurve"/>
      <point x="729" y="1024"/>
      <point x="813" y="972" type="qcurve"/>
      <point x="901" y="926"/>
      <point x="946" y="836" type="qcurve"/>
      <point x="996" y="750"/>
      <point x="993" y="636" type="qcurve"/>
      <point x="993" y="0" type="line"/>
      <point x="850" y="0" type="line"/>
      <point x="850" y="615" type="line"/>
      <point x="850" y="738"/>
      <point x="780" y="814" type="qcurve"/>
      <point x="713" y="892"/>
      <point x="602" y="890" type="qcurve"/>
      <point x="521" y="890"/>
      <point x="448" y="857" type="qcurve"/>
      <point x="377" y="824"/>
      <point x="333" y="761" type="qcurve"/>
      <point x="293" y="705"/>
      <point x="292" y="636" type="qcurve"/>
      <point x="292" y="0" type="line"/>
      <point x="147" y="0" type="line"/>
      <point x="147" y="996" type="line"/>
      <point x="292" y="996" type="line"/>
      <point x="292" y="836" type="line"/>
      <point x="335" y="917"/>
      <point x="425" y="968" type="qcurve"/>
      <point x="517" y="1022"/>
    </contour>
    <contour>
      <point x="696" y="1130" type="qcurve"/>
      <point x="656" y="1128"/>
      <point x="624" y="1146" type="qcurve"/>
      <point x="597" y="1167"/>
      <point x="546" y="1201" type="qcurve"/>
      <point x="519" y="1232"/>
      <point x="493" y="1244" type="qcurve"/>
      <point x="473" y="1260"/>
      <point x="446" y="1257" type="qcurve"/>
      <point x="412" y="1258"/>
      <point x="386" y="1226" type="qcurve"/>
      <point x="362" y="1196"/>
      <point x="350" y="1125" type="qcurve"/>
      <point x="261" y="1138" type="line"/>
      <point x="293" y="1368"/>
      <point x="446" y="1367" type="qcurve"/>
      <point x="485" y="1370"/>
      <point x="516" y="1351" type="qcurve"/>
      <point x="549" y="1332"/>
      <point x="596" y="1296" type="qcurve"/>
      <point x="629" y="1268"/>
      <point x="649" y="1255" type="qcurve"/>
      <point x="673" y="1242"/>
      <point x="696" y="1242" type="qcurve"/>
      <point x="735" y="1242"/>
      <point x="757" y="1273" type="qcurve"/>
      <point x="781" y="1305"/>
      <point x="792" y="1371" type="qcurve"/>
      <point x="881" y="1359" type="line"/>
      <point x="851" y="1133"/>
    </contour>
  </outline>
</glyph>
<glyph name="otilde" format="2">
  <advance width="1217"/>
  <unicode hex="00F5"/>
  <outline>
    <contour>
      <point x="609" y="-23" type="qcurve"/>
      <point x="473" y="-20"/>
      <point x="353" y="49" type="qcurve"/>
      <point x="236" y="120"/>
      <point x="164" y="240" type="qcurve"/>
      <point x="94" y="362"/>
      <point x="94" y="498" type="qcurve"/>
      <point x="94" y="640"/>
      <point x="162" y="758" type="qcurve"/>
      <point x="234" y="882"/>
      <point x="353" y="949" type="qcurve"/>
      <point x="473" y="1021"/>
      <point x="609" y="1021" type="qcurve"/>
      <point x="748" y="1021"/>
      <point x="865" y="949" type="qcurve"/>
      <point x="986" y="882"/>
      <point x="1054" y="758" type="qcurve"/>
      <point x="1126" y="640"/>
      <point x="1123" y="498" type="qcurve"/>
      <point x="1123" y="427"/>
      <point x="1108" y="365" type="qcurve"/>
      <point x="1094" y="304"/>
      <point x="1056" y="242" type="qcurve"/>
      <point x="988" y="122"/>
      <point x="867" y="49" type="qcurve"/>
      <point x="750" y="-20"/>
    </contour>
    <contour>
      <point x="609" y="105" type="qcurve"/>
      <point x="705" y="108"/>
      <point x="789" y="160" type="qcurve"/>
      <point x="874" y="214"/>
      <point x="920" y="301" type="qcurve"/>
      <point x="972" y="394"/>
      <point x="972" y="498" type="qcurve"/>
      <point x="974" y="603"/>
      <point x="922" y="693" type="qcurve"/>
      <point x="876" y="784"/>
      <point x="791" y="836" type="qcurve"/>
      <point x="705" y="890"/>
      <point x="609" y="890" type="qcurve"/>
      <point x="512" y="892"/>
      <point x="428" y="838" type="qcurve"/>
      <point x="344" y="786"/>
      <point x="293" y="693" type="qcurve"/>
      <point x="246" y="603"/>
      <point x="246" y="498" type="qcurve"/>
      <point x="244" y="394"/>
      <point x="291" y="303" type="qcurve"/>
      <point x="342" y="214"/>
      <point x="426" y="160" type="qcurve"/>
      <point x="513" y="108"/>
    </contour>
    <contour>
      <point x="736" y="1128" type="qcurve"/>
      <point x="696" y="1126"/>
      <point x="664" y="1144" type="qcurve"/>
      <point x="637" y="1165"/>
      <point x="586" y="1199" type="qcurve"/>
      <point x="559" y="1230"/>
      <point x="533" y="1242" type="qcurve"/>
      <point x="512" y="1258"/>
      <point x="486" y="1255" type="qcurve"/>
      <point x="452" y="1256"/>
      <point x="426" y="1224" type="qcurve"/>
      <point x="402" y="1194"/>
      <point x="390" y="1123" type="qcurve"/>
      <point x="301" y="1136" type="line"/>
      <point x="333" y="1366"/>
      <point x="486" y="1365" type="qcurve"/>
      <point x="526" y="1368"/>
      <point x="556" y="1349" type="qcurve"/>
      <point x="588" y="1330"/>
      <point x="636" y="1294" type="qcurve"/>
      <point x="668" y="1266"/>
      <point x="689" y="1253" type="qcurve"/>
      <point x="714" y="1240"/>
      <point x="736" y="1240" type="qcurve"/>
      <point x="776" y="1240"/>
      <point x="797" y="1271" type="qcurve"/>
      <point x="820" y="1303"/>
      <point x="832" y="1369" type="qcurve"/>
      <point x="920" y="1357" type="line"/>
      <point x="890" y="1131"/>
    </contour>
  </outline>
</glyph>
<glyph name="divide" format="2">
  <advance width="1143"/>
  <unicode hex="00F7"/>
  <outline>
    <contour>
      <point x="574" y="853" type="qcurve"/>
      <point x="530" y="854"/>
      <point x="498" y="882" type="qcurve"/>
      <point x="468" y="915"/>
      <point x="469" y="957" type="qcurve"/>
      <point x="468" y="1001"/>
      <point x="498" y="1031" type="qcurve"/>
      <point x="530" y="1063"/>
      <point x="574" y="1060" type="qcurve"/>
      <point x="616" y="1063"/>
      <point x="646" y="1031" type="qcurve"/>
      <point x="676" y="1001"/>
      <point x="676" y="957" type="qcurve"/>
      <point x="676" y="915"/>
      <point x="648" y="882" type="qcurve"/>
      <point x="618" y="854"/>
    </contour>
    <contour>
      <point x="129" y="715" type="line"/>
      <point x="1015" y="715" type="line"/>
      <point x="1015" y="572" type="line"/>
      <point x="129" y="572" type="line"/>
    </contour>
    <contour>
      <point x="574" y="228" type="qcurve"/>
      <point x="530" y="228"/>
      <point x="498" y="258" type="qcurve"/>
      <point x="468" y="290"/>
      <point x="469" y="332" type="qcurve"/>
      <point x="468" y="374"/>
      <point x="498" y="406" type="qcurve"/>
      <point x="530" y="438"/>
      <point x="574" y="437" type="qcurve"/>
      <point x="616" y="438"/>
      <point x="646" y="406" type="qcurve"/>
      <point x="676" y="374"/>
      <point x="676" y="332" type="qcurve"/>
      <point x="676" y="290"/>
      <point x="648" y="258" type="qcurve"/>
      <point x="618" y="228"/>
    </contour>
  </outline>
</glyph>
<glyph name="oslash" format="2">
  <advance width="1217"/>
  <unicode hex="00F8"/>
  <outline>
    <contour>
      <point x="990" y="847" type="qcurve"/>
      <point x="1054" y="775"/>
      <point x="1086" y="685" type="qcurve"/>
      <point x="1124" y="600"/>
      <point x="1123" y="498" type="qcurve"/>
      <point x="1123" y="427"/>
      <point x="1108" y="365" type="qcurve"/>
      <point x="1094" y="304"/>
      <point x="1056" y="242" type="qcurve"/>
      <point x="988" y="122"/>
      <point x="867" y="49" type="qcurve"/>
      <point x="750" y="-20"/>
      <point x="609" y="-23" type="qcurve"/>
      <point x="459" y="-20"/>
      <point x="324" y="66" type="qcurve"/>
      <point x="269" y="0" type="line"/>
      <point x="102" y="0" type="line"/>
      <point x="232" y="148" type="line"/>
      <point x="166" y="218"/>
      <point x="129" y="308" type="qcurve"/>
      <point x="94" y="400"/>
      <point x="94" y="498" type="qcurve"/>
      <point x="94" y="640"/>
      <point x="162" y="758" type="qcurve"/>
      <point x="234" y="882"/>
      <point x="353" y="949" type="qcurve"/>
      <point x="473" y="1021"/>
      <point x="609" y="1021" type="qcurve"/>
      <point x="762" y="1022"/>
      <point x="896" y="929" type="qcurve"/>
      <point x="955" y="996" type="line"/>
      <point x="1117" y="996" type="line"/>
      <point x="1120" y="996"/>
    </contour>
    <contour>
      <point x="246" y="498" type="qcurve"/>
      <point x="246" y="362"/>
      <point x="324" y="258" type="qcurve"/>
      <point x="808" y="826" type="line"/>
      <point x="714" y="892"/>
      <point x="609" y="890" type="qcurve"/>
      <point x="512" y="892"/>
      <point x="428" y="838" type="qcurve"/>
      <point x="344" y="786"/>
      <point x="293" y="693" type="qcurve"/>
      <point x="246" y="603"/>
    </contour>
    <contour>
      <point x="609" y="105" type="qcurve"/>
      <point x="705" y="108"/>
      <point x="789" y="160" type="qcurve"/>
      <point x="874" y="214"/>
      <point x="920" y="301" type="qcurve"/>
      <point x="972" y="394"/>
      <point x="972" y="498" type="qcurve"/>
      <point x="972" y="628"/>
      <point x="896" y="736" type="qcurve"/>
      <point x="412" y="170" type="line"/>
      <point x="504" y="106"/>
    </contour>
  </outline>
</glyph>
<glyph name="ugrave" format="2">
  <advance width="1141"/>
  <unicode hex="00F9"/>
  <outline>
    <contour>
      <point x="520" y="-25" type="qcurve"/>
      <point x="411" y="-26"/>
      <point x="327" y="25" type="qcurve"/>
      <point x="239" y="73"/>
      <point x="194" y="160" type="qcurve"/>
      <point x="145" y="247"/>
      <point x="147" y="361" type="qcurve"/>
      <point x="147" y="996" type="line"/>
      <point x="290" y="996" type="line"/>
      <point x="290" y="381" type="line"/>
      <point x="291" y="258"/>
      <point x="360" y="182" type="qcurve"/>
      <point x="427" y="106"/>
      <point x="538" y="107" type="qcurve"/>
      <point x="620" y="107"/>
      <point x="692" y="139" type="qcurve"/>
      <point x="765" y="172"/>
      <point x="807" y="236" type="qcurve"/>
      <point x="849" y="292"/>
      <point x="848" y="361" type="qcurve"/>
      <point x="848" y="996" type="line"/>
      <point x="993" y="996" type="line"/>
      <point x="993" y="0" type="line"/>
      <point x="848" y="0" type="line"/>
      <point x="848" y="160" type="line"/>
      <point x="806" y="80"/>
      <point x="714" y="29" type="qcurve"/>
      <point x="625" y="-25"/>
    </contour>
    <contour>
      <point x="380" y="1341" type="line"/>
      <point x="534" y="1376" type="line"/>
      <point x="766" y="1099" type="line"/>
      <point x="655" y="1099" type="line"/>
    </contour>
  </outline>
</glyph>
<glyph name="ydieresis" format="2">
  <advance width="1143"/>
  <unicode hex="00FF"/>
  <outline>
    <contour>
      <point x="351" y="-379" type="line"/>
      <point x="498" y="0" type="line"/>
      <point x="57" y="996" type="line"/>
      <point x="217" y="996" type="line"/>
      <point x="570" y="172" type="line"/>
      <point x="896" y="996" type="line"/>
      <point x="1054" y="996" type="line"/>
      <point x="492" y="-379" type="line"/>
    </contour>
    <contour>
      <point x="369" y="1277" type="qcurve"/>
      <point x="406" y="1278"/>
      <point x="432" y="1251" type="qcurve"/>
      <point x="459" y="1224"/>
      <point x="459" y="1187" type="qcurve"/>
      <point x="460" y="1152"/>
      <point x="433" y="1125" type="qcurve"/>
      <point x="406" y="1099"/>
      <point x="369" y="1099" type="qcurve"/>
      <point x="334" y="1098"/>
      <point x="307" y="1124" type="qcurve"/>
      <point x="281" y="1151"/>
      <point x="281" y="1187" type="qcurve"/>
      <point x="280" y="1224"/>
      <point x="306" y="1250" type="qcurve"/>
      <point x="333" y="1277"/>
    </contour>
    <contour>
      <point x="740" y="1277" type="qcurve"/>
      <point x="777" y="1278"/>
      <point x="803" y="1251" type="qcurve"/>
      <point x="830" y="1224"/>
      <point x="830" y="1189" type="qcurve"/>
      <point x="830" y="1153"/>
      <point x="804" y="1126" type="qcurve"/>
      <point x="778" y="1099"/>
      <point x="740" y="1099" type="qcurve"/>
      <point x="704" y="1098"/>
      <point x="679" y="1125" type="qcurve"/>
      <point x="654" y="1152"/>
      <point x="654" y="1189" type="qcurve"/>
      <point x="654" y="1224"/>
      <point x="678" y="1250" type="qcurve"/>
      <point x="704" y="1277"/>
    </contour>
  </outline>
</glyph>
<glyph name="Amacron" format="2">
  <advance width="1352"/>
  <unicode hex="0100"/>
  <outline>
    <contour>
      <point x="596" y="1456" type="line"/>
      <point x="760" y="1456" type="line"/>
      <point x="1288" y="0" type="line"/>
      <point x="1127" y="0" type="line"/>
      <point x="977" y="418" type="line"/>
      <point x="378" y="418" type="line"/>
      <point x="225" y="0" type="line"/>
      <point x="63" y="0" type="line"/>
    </contour>
    <contour>
      <point x="678" y="1234" type="line"/>
      <point x="429" y="558" type="line"/>
      <point x="926" y="558" type="line"/>
    </contour>
    <contour>
      <point x="523" y="1883" type="line"/>
      <point x="1048" y="1883" type="line"/>
      <point x="1048" y="1773" type="line"/>
      <point x="523" y="1773" type="line"/>
    </contour>
    <contour>
      <point x="303" y="1558" type="line"/>
      <point x="303" y="1558" type="line"/>
      <point x="303" y="1558" type="line"/>
      <point x="303" y="1558" type="line"/>
    </contour>
    <contour>
      <point x="303" y="1558" type="line"/>
      <point x="303" y="1558" type="line"/>
      <point x="303" y="1558" type="line"/>
      <point x="303" y="1558" type="line"/>
    </contour>
  </outline>
</glyph>
<glyph name="Aogonek" format="2">
  <advance width="1352"/>
  <unicode hex="0104"/>
  <outline>
    <contour>
      <point x="596" y="1456" type="line"/>
      <point x="760" y="1456" type="line"/>
      <point x="1288" y="0" type="line"/>
      <point x="1127" y="0" type="line"/>
      <point x="977" y="418" type="line"/>
      <point x="378" y="418" type="line"/>
      <point x="225" y="0" type="line"/>
      <point x="63" y="0" type="line"/>
    </contour>
    <contour>
      <point x="678" y="1234" type="line"/>
      <point x="429" y="558" type="line"/>
      <point x="926" y="558" type="line"/>
    </contour>
    <contour>
      <point x="700" y="-472" type="qcurve"/>
      <point x="607" y="-474"/>
      <point x="546" y="-420" type="qcurve"/>
      <point x="489" y="-360"/>
      <point x="489" y="-266" type="qcurve"/>
      <point x="487" y="-210"/>
      <point x="518" y="-166" type="qcurve"/>
      <point x="549" y="-120"/>
      <point x="591" y="-102" type="qcurve"/>
      <point x="708" y="-139" type="line"/>
      <point x="663" y="-138"/>
      <point x="630" y="-170" type="qcurve"/>
      <point x="598" y="-200"/>
      <point x="598" y="-248" type="qcurve"/>
      <point x="599" y="-298"/>
      <point x="626" y="-330" type="qcurve"/>
      <point x="656" y="-360"/>
      <point x="708" y="-359" type="qcurve"/>
      <point x="768" y="-356"/>
      <point x="801" y="-322" type="qcurve"/>
      <point x="860" y="-418" type="line"/>
      <point x="794" y="-472"/>
    </contour>
  </outline>
</glyph>
<glyph name="Ccircumflex" format="2">
  <advance width="1421"/>
  <unicode hex="0108"/>
  <outline>
    <contour>
      <point x="845" y="1478" type="qcurve"/>
      <point x="1046" y="1480"/>
      <point x="1212" y="1378" type="qcurve"/>
      <point x="1298" y="1324"/>
      <point x="1367" y="1255" type="qcurve"/>
      <point x="1261" y="1148" type="line"/>
      <point x="1206" y="1202"/>
      <point x="1138" y="1244" type="qcurve"/>
      <point x="1000" y="1328"/>
      <point x="845" y="1326" type="qcurve"/>
      <point x="692" y="1328"/>
      <point x="551" y="1246" type="qcurve"/>
      <point x="482" y="1204"/>
      <point x="429" y="1152" type="qcurve"/>
      <point x="376" y="1101"/>
      <point x="334" y="1029" type="qcurve"/>
      <point x="254" y="887"/>
      <point x="254" y="728" type="qcurve"/>
      <point x="251" y="574"/>
      <point x="332" y="433" type="qcurve"/>
      <point x="376" y="364"/>
      <point x="427" y="310" type="qcurve"/>
      <point x="480" y="256"/>
      <point x="549" y="213" type="qcurve"/>
      <point x="690" y="127"/>
      <point x="845" y="129" type="qcurve"/>
      <point x="998" y="127"/>
      <point x="1136" y="213" type="qcurve"/>
      <point x="1205" y="254"/>
      <point x="1259" y="308" type="qcurve"/>
      <point x="1365" y="201" type="line"/>
      <point x="1301" y="136"/>
      <point x="1214" y="82" type="qcurve"/>
      <point x="1046" y="-20"/>
      <point x="845" y="-23" type="qcurve"/>
      <point x="649" y="-22"/>
      <point x="478" y="80" type="qcurve"/>
      <point x="306" y="184"/>
      <point x="203" y="355" type="qcurve"/>
      <point x="98" y="527"/>
      <point x="98" y="728" type="qcurve"/>
      <point x="98" y="932"/>
      <point x="203" y="1101" type="qcurve"/>
      <point x="308" y="1274"/>
      <point x="476" y="1376" type="qcurve"/>
      <point x="648" y="1481"/>
    </contour>
    <contour>
      <point x="664" y="1847" type="line"/>
      <point x="800" y="1847" type="line"/>
      <point x="996" y="1583" type="line"/>
      <point x="884" y="1583" type="line"/>
      <point x="732" y="1747" type="line"/>
      <point x="582" y="1583" type="line"/>
      <point x="472" y="1583" type="line"/>
    </contour>
  </outline>
</glyph>
<glyph name="Emacron" format="2">
  <advance width="1208"/>
  <unicode hex="0112"/>
  <outline>
    <contour>
      <point x="303" y="1312" type="line"/>
      <point x="303" y="812" type="line"/>
      <point x="1025" y="812" type="line"/>
      <point x="1025" y="670" type="line"/>
      <point x="303" y="670" type="line"/>
      <point x="303" y="141" type="line"/>
      <point x="1103" y="141" type="line"/>
      <point x="1103" y="0" type="line"/>
      <point x="152" y="0" type="line"/>
      <point x="152" y="1456" type="line"/>
      <point x="1103" y="1456" type="line"/>
      <point x="1103" y="1312" type="line"/>
    </contour>
    <contour>
      <point x="476" y="1883" type="line"/>
      <point x="1001" y="1883" type="line"/>
      <point x="1001" y="1773" type="line"/>
      <point x="476" y="1773" type="line"/>
    </contour>
    <contour>
      <point x="256" y="1558" type="line"/>
      <point x="256" y="1558" type="line"/>
      <point x="256" y="1558" type="line"/>
      <point x="256" y="1558" type="line"/>
    </contour>
    <contour>
      <point x="256" y="1558" type="line"/>
      <point x="256" y="1558" type="line"/>
      <point x="256" y="1558" type="line"/>
      <point x="256" y="1558" type="line"/>
    </contour>
  </outline>
</glyph>
<glyph name="ebreve" format="2">
  <advance width="1147"/>
  <unicode hex="0115"/>
  <outline>
    <contour>
      <point x="597" y="105" type="qcurve"/>
      <point x="686" y="108"/>
      <point x="773" y="139" type="qcurve"/>
      <point x="866" y="175"/>
      <point x="910" y="226" type="qcurve"/>
      <point x="998" y="131" type="line"/>
      <point x="936" y="62"/>
      <point x="822" y="20" type="qcurve"/>
      <point x="708" y="-20"/>
      <point x="599" y="-23" type="qcurve"/>
      <point x="464" y="-23"/>
      <point x="348" y="45" type="qcurve"/>
      <point x="234" y="112"/>
      <point x="164" y="232" type="qcurve"/>
      <point x="94" y="354"/>
      <point x="94" y="500" type="qcurve"/>
      <point x="92" y="648"/>
      <point x="158" y="765" type="qcurve"/>
      <point x="226" y="887"/>
      <point x="336" y="953" type="qcurve"/>
      <point x="452" y="1022"/>
      <point x="584" y="1021" type="qcurve"/>
      <point x="808" y="1021"/>
      <point x="931" y="865" type="qcurve"/>
      <point x="1058" y="709"/>
      <point x="1058" y="445" type="qcurve"/>
      <point x="242" y="445" type="line"/>
      <point x="258" y="295"/>
      <point x="353" y="201" type="qcurve"/>
      <point x="452" y="108"/>
    </contour>
    <contour>
      <point x="590" y="890" type="qcurve"/>
      <point x="455" y="892"/>
      <point x="359" y="804" type="qcurve"/>
      <point x="265" y="718"/>
      <point x="244" y="572" type="qcurve"/>
      <point x="914" y="572" type="line"/>
      <point x="900" y="718"/>
      <point x="816" y="802" type="qcurve"/>
      <point x="736" y="890"/>
    </contour>
    <contour>
      <point x="578" y="1123" type="qcurve"/>
      <point x="503" y="1124"/>
      <point x="428" y="1152" type="qcurve"/>
      <point x="356" y="1184"/>
      <point x="295" y="1240" type="qcurve"/>
      <point x="387" y="1330" type="line"/>
      <point x="424" y="1294"/>
      <point x="474" y="1269" type="qcurve"/>
      <point x="528" y="1248"/>
      <point x="578" y="1248" type="qcurve"/>
      <point x="628" y="1248"/>
      <point x="676" y="1269" type="qcurve"/>
      <point x="733" y="1294"/>
      <point x="769" y="1330" type="qcurve"/>
      <point x="857" y="1240" type="line"/>
      <point x="806" y="1186"/>
      <point x="730" y="1154" type="qcurve"/>
      <point x="658" y="1124"/>
    </contour>
  </outline>
</glyph>
<glyph name="Eogonek" format="2">
  <advance width="1208"/>
  <unicode hex="0118"/>
  <outline>
    <contour>
      <point x="303" y="1312" type="line"/>
      <point x="303" y="812" type="line"/>
      <point x="1025" y="812" type="line"/>
      <point x="1025" y="670" type="line"/>
      <point x="303" y="670" type="line"/>
      <point x="303" y="141" type="line"/>
      <point x="1103" y="141" type="line"/>
      <point x="1103" y="0" type="line"/>
      <point x="152" y="0" type="line"/>
      <point x="152" y="1456" type="line"/>
      <point x="1103" y="1456" type="line"/>
      <point x="1103" y="1312" type="line"/>
    </contour>
    <contour>
      <point x="654" y="-472" type="qcurve"/>
      <point x="560" y="-474"/>
      <point x="500" y="-420" type="qcurve"/>
      <point x="443" y="-360"/>
      <point x="443" y="-266" type="qcurve"/>
      <point x="442" y="-210"/>
      <point x="472" y="-166" type="qcurve"/>
      <point x="502" y="-120"/>
      <point x="545" y="-102" type="qcurve"/>
      <point x="662" y="-139" type="line"/>
      <point x="617" y="-138"/>
      <point x="584" y="-170" type="qcurve"/>
      <point x="551" y="-200"/>
      <point x="551" y="-248" type="qcurve"/>
      <point x="552" y="-298"/>
      <point x="580" y="-330" type="qcurve"/>
      <point x="610" y="-360"/>
      <point x="662" y="-359" type="qcurve"/>
      <point x="722" y="-356"/>
      <point x="754" y="-322" type="qcurve"/>
      <point x="814" y="-418" type="line"/>
      <point x="748" y="-472"/>
    </contour>
  </outline>
</glyph>
<glyph name="Gcircumflex" format="2">
  <advance width="1634"/>
  <unicode hex="011C"/>
  <outline>
    <contour>
      <point x="98" y="726" type="qcurve"/>
      <point x="98" y="898"/>
      <point x="164" y="1036" type="qcurve"/>
      <point x="230" y="1176"/>
      <point x="336" y="1273" type="qcurve"/>
      <point x="444" y="1371"/>
      <point x="578" y="1424" type="qcurve"/>
      <point x="713" y="1478"/>
      <point x="853" y="1478" type="qcurve"/>
      <point x="980" y="1478"/>
      <point x="1081" y="1439" type="qcurve"/>
      <point x="1182" y="1400"/>
      <point x="1254" y="1355" type="qcurve"/>
      <point x="1326" y="1310"/>
      <point x="1404" y="1236" type="qcurve"/>
      <point x="1326" y="1140" type="line"/>
      <point x="1254" y="1202"/>
      <point x="1189" y="1238" type="qcurve"/>
      <point x="1126" y="1276"/>
      <point x="1039" y="1306" type="qcurve"/>
      <point x="954" y="1338"/>
      <point x="855" y="1337" type="qcurve"/>
      <point x="731" y="1338"/>
      <point x="620" y="1290" type="qcurve"/>
      <point x="510" y="1242"/>
      <point x="429" y="1161" type="qcurve"/>
      <point x="348" y="1080"/>
      <point x="301" y="969" type="qcurve"/>
      <point x="254" y="858"/>
      <point x="254" y="726" type="qcurve"/>
      <point x="254" y="622"/>
      <point x="291" y="513" type="qcurve"/>
      <point x="328" y="405"/>
      <point x="402" y="318" type="qcurve"/>
      <point x="476" y="233"/>
      <point x="582" y="178" type="qcurve"/>
      <point x="690" y="124"/>
      <point x="824" y="123" type="qcurve"/>
      <point x="984" y="123"/>
      <point x="1094" y="180" type="qcurve"/>
      <point x="1205" y="238"/>
      <point x="1273" y="315" type="qcurve"/>
      <point x="1342" y="392"/>
      <point x="1371" y="469" type="qcurve"/>
      <point x="1402" y="548"/>
      <point x="1402" y="584" type="qcurve"/>
      <point x="855" y="584" type="line"/>
      <point x="855" y="726" type="line"/>
      <point x="1544" y="726" type="line"/>
      <point x="1544" y="623" type="line"/>
      <point x="1544" y="546"/>
      <point x="1505" y="435" type="qcurve"/>
      <point x="1466" y="324"/>
      <point x="1380" y="223" type="qcurve"/>
      <point x="1295" y="121"/>
      <point x="1158" y="49" type="qcurve"/>
      <point x="1022" y="-23"/>
      <point x="824" y="-23" type="qcurve"/>
      <point x="690" y="-24"/>
      <point x="558" y="33" type="qcurve"/>
      <point x="427" y="90"/>
      <point x="324" y="189" type="qcurve"/>
      <point x="222" y="289"/>
      <point x="160" y="427" type="qcurve"/>
      <point x="98" y="567"/>
    </contour>
    <contour>
      <point x="750" y="1845" type="line"/>
      <point x="886" y="1845" type="line"/>
      <point x="1082" y="1581" type="line"/>
      <point x="970" y="1581" type="line"/>
      <point x="818" y="1745" type="line"/>
      <point x="668" y="1581" type="line"/>
      <point x="558" y="1581" type="line"/>
    </contour>
  </outline>
</glyph>
<glyph name="Gcedilla" format="2">
  <advance width="1634"/>
  <unicode hex="0122"/>
  <outline>
    <contour>
      <point x="98" y="726" type="qcurve"/>
      <point x="98" y="898"/>
      <point x="164" y="1036" type="qcurve"/>
      <point x="230" y="1176"/>
      <point x="336" y="1273" type="qcurve"/>
      <point x="444" y="1371"/>
      <point x="578" y="1424" type="qcurve"/>
      <point x="713" y="1478"/>
      <point x="853" y="1478" type="qcurve"/>
      <point x="980" y="1478"/>
      <point x="1081" y="1439" type="qcurve"/>
      <point x="1182" y="1400"/>
      <point x="1254" y="1355" type="qcurve"/>
      <point x="1326" y="1310"/>
      <point x="1404" y="1236" type="qcurve"/>
      <point x="1326" y="1140" type="line"/>
      <point x="1254" y="1202"/>
      <point x="1189" y="1238" type="qcurve"/>
      <point x="1126" y="1276"/>
      <point x="1039" y="1306" type="qcurve"/>
      <point x="954" y="1338"/>
      <point x="855" y="1337" type="qcurve"/>
      <point x="731" y="1338"/>
      <point x="620" y="1290" type="qcurve"/>
      <point x="510" y="1242"/>
      <point x="429" y="1161" type="qcurve"/>
      <point x="348" y="1080"/>
      <point x="301" y="969" type="qcurve"/>
      <point x="254" y="858"/>
      <point x="254" y="726" type="qcurve"/>
      <point x="254" y="622"/>
      <point x="291" y="513" type="qcurve"/>
      <point x="328" y="405"/>
      <point x="402" y="318" type="qcurve"/>
      <point x="476" y="233"/>
      <point x="582" y="178" type="qcurve"/>
      <point x="690" y="124"/>
      <point x="824" y="123" type="qcurve"/>
      <point x="984" y="123"/>
      <point x="1094" y="180" type="qcurve"/>
      <point x="1205" y="238"/>
      <point x="1273" y="315" type="qcurve"/>
      <point x="1342" y="392"/>
      <point x="1371" y="469" type="qcurve"/>
      <point x="1402" y="548"/>
      <point x="1402" y="584" type="qcurve"/>
      <point x="855" y="584" type="line"/>
      <point x="855" y="726" type="line"/>
      <point x="1544" y="726" type="line"/>
      <point x="1544" y="623" type="line"/>
      <point x="1544" y="546"/>
      <point x="1505" y="435" type="qcurve"/>
      <point x="1466" y="324"/>
      <point x="1380" y="223" type="qcurve"/>
      <point x="1295" y="121"/>
      <point x="1158" y="49" type="qcurve"/>
      <point x="1022" y="-23"/>
      <point x="824" y="-23" type="qcurve"/>
      <point x="690" y="-24"/>
      <point x="558" y="33" type="qcurve"/>
      <point x="427" y="90"/>
      <point x="324" y="189" type="qcurve"/>
      <point x="222" y="289"/>
      <point x="160" y="427" type="qcurve"/>
      <point x="98" y="567"/>
    </contour>
    <contour>
      <point x="865" y="-234" type="qcurve"/>
      <point x="925" y="-232"/>
      <point x="961" y="-266" type="qcurve"/>
      <point x="1003" y="-300"/>
      <point x="1000" y="-359" type="qcurve"/>
      <point x="1000" y="-428"/>
      <point x="945" y="-472" type="qcurve"/>
      <point x="892" y="-514"/>
      <point x="810" y="-515" type="qcurve"/>
      <point x="766" y="-515"/>
      <point x="718" y="-500" type="qcurve"/>
      <point x="670" y="-484"/>
      <point x="640" y="-461" type="qcurve"/>
      <point x="676" y="-381" type="line"/>
      <point x="734" y="-423"/>
      <point x="804" y="-426" type="qcurve"/>
      <point x="846" y="-426"/>
      <point x="871" y="-406" type="qcurve"/>
      <point x="901" y="-382"/>
      <point x="898" y="-353" type="qcurve"/>
      <point x="900" y="-321"/>
      <point x="879" y="-305" type="qcurve"/>
      <point x="860" y="-284"/>
      <point x="822" y="-285" type="qcurve"/>
      <point x="788" y="-284"/>
      <point x="758" y="-308" type="qcurve"/>
      <point x="728" y="-275" type="line"/>
      <point x="791" y="-125" type="line"/>
      <point x="890" y="-125" type="line"/>
      <point x="845" y="-236" type="line"/>
      <point x="854" y="-232"/>
    </contour>
  </outline>
</glyph>
<glyph name="Hcircumflex" format="2">
  <advance width="1460"/>
  <unicode hex="0124"/>
  <outline>
    <contour>
      <point x="1310" y="1456" type="line"/>
      <point x="1310" y="0" type="line"/>
      <point x="1160" y="0" type="line"/>
      <point x="1160" y="676" type="line"/>
      <point x="301" y="676" type="line"/>
      <point x="301" y="0" type="line"/>
      <point x="152" y="0" type="line"/>
      <point x="152" y="1456" type="line"/>
      <point x="301" y="1456" type="line"/>
      <point x="301" y="820" type="line"/>
      <point x="1160" y="820" type="line"/>
      <point x="1160" y="1456" type="line"/>
    </contour>
    <contour>
      <point x="660" y="1822" type="line"/>
      <point x="795" y="1822" type="line"/>
      <point x="992" y="1558" type="line"/>
      <point x="879" y="1558" type="line"/>
      <point x="728" y="1722" type="line"/>
      <point x="578" y="1558" type="line"/>
      <point x="467" y="1558" type="line"/>
    </contour>
  </outline>
</glyph>
<glyph name="itilde" format="2">
  <advance width="434"/>
  <unicode hex="0129"/>
  <outline>
    <contour>
      <point x="144" y="996" type="line"/>
      <point x="289" y="996" type="line"/>
      <point x="289" y="0" type="line"/>
      <point x="144" y="0" type="line"/>
    </contour>
    <contour>
      <point x="341" y="1102" type="qcurve"/>
      <point x="302" y="1100"/>
      <point x="269" y="1118" type="qcurve"/>
      <point x="242" y="1140"/>
      <point x="191" y="1174" type="qcurve"/>
      <point x="164" y="1206"/>
      <point x="138" y="1217" type="qcurve"/>
      <point x="118" y="1232"/>
      <point x="91" y="1229" type="qcurve"/>
      <point x="58" y="1230"/>
      <point x="31" y="1198" type="qcurve"/>
      <point x="8" y="1168"/>
      <point x="-6" y="1098" type="qcurve"/>
      <point x="-94" y="1110" type="line"/>
      <point x="-62" y="1342"/>
      <point x="91" y="1340" type="qcurve"/>
      <point x="130" y="1344"/>
      <point x="160" y="1323" type="qcurve"/>
      <point x="194" y="1306"/>
      <point x="240" y="1268" type="qcurve"/>
      <point x="273" y="1240"/>
      <point x="293" y="1227" type="qcurve"/>
      <point x="320" y="1215"/>
      <point x="341" y="1215" type="qcurve"/>
      <point x="381" y="1216"/>
      <point x="402" y="1246" type="qcurve"/>
      <point x="426" y="1276"/>
      <point x="437" y="1344" type="qcurve"/>
      <point x="525" y="1332" type="line"/>
      <point x="495" y="1106"/>
    </contour>
  </outline>
</glyph>
<glyph name="Ibreve" format="2">
  <advance width="455"/>
  <unicode hex="012C"/>
  <outline>
    <contour>
      <point x="152" y="1456" type="line"/>
      <point x="301" y="1456" type="line"/>
      <point x="301" y="0" type="line"/>
      <point x="152" y="0" type="line"/>
    </contour>
    <contour>
      <point x="228" y="1558" type="qcurve"/>
      <point x="153" y="1558"/>
      <point x="78" y="1587" type="qcurve"/>
      <point x="4" y="1618"/>
      <point x="-55" y="1675" type="qcurve"/>
      <point x="37" y="1765" type="line"/>
      <point x="75" y="1728"/>
      <point x="123" y="1704" type="qcurve"/>
      <point x="177" y="1683"/>
      <point x="228" y="1683" type="qcurve"/>
      <point x="278" y="1683"/>
      <point x="326" y="1704" type="qcurve"/>
      <point x="382" y="1728"/>
      <point x="418" y="1765" type="qcurve"/>
      <point x="506" y="1675" type="line"/>
      <point x="455" y="1621"/>
      <point x="379" y="1589" type="qcurve"/>
      <point x="309" y="1558"/>
    </contour>
  </outline>
</glyph>
<glyph name="iogonek" format="2">
  <advance width="434"/>
  <unicode hex="012F"/>
  <outline>
    <contour>
      <point x="144" y="996" type="line"/>
      <point x="289" y="996" type="line"/>
      <point x="289" y="0" type="line"/>
      <point x="144" y="0" type="line"/>
    </contour>
    <contour>
      <point x="243" y="-471" type="qcurve"/>
      <point x="150" y="-472"/>
      <point x="89" y="-420" type="qcurve"/>
      <point x="32" y="-358"/>
      <point x="32" y="-266" type="qcurve"/>
      <point x="32" y="-210"/>
      <point x="61" y="-166" type="qcurve"/>
      <point x="92" y="-120"/>
      <point x="134" y="-102" type="qcurve"/>
      <point x="251" y="-139" type="line"/>
      <point x="206" y="-138"/>
      <point x="173" y="-170" type="qcurve"/>
      <point x="141" y="-200"/>
      <point x="141" y="-248" type="qcurve"/>
      <point x="142" y="-298"/>
      <point x="169" y="-330" type="qcurve"/>
      <point x="200" y="-360"/>
      <point x="251" y="-358" type="qcurve"/>
      <point x="311" y="-354"/>
      <point x="344" y="-321" type="qcurve"/>
      <point x="403" y="-418" type="line"/>
      <point x="337" y="-470"/>
    </contour>
  </outline>
</glyph>
<glyph name="Kcedilla" format="2">
  <advance width="1270"/>
  <unicode hex="0136"/>
  <outline>
    <contour>
      <point x="176" y="1456" type="line"/>
      <point x="328" y="1456" type="line"/>
      <point x="328" y="767" type="line"/>
      <point x="1019" y="1456" type="line"/>
      <point x="1216" y="1456" type="line"/>
      <point x="504" y="748" type="line"/>
      <point x="1255" y="0" type="line"/>
      <point x="1058" y="0" type="line"/>
      <point x="328" y="728" type="line"/>
      <point x="328" y="0" type="line"/>
      <point x="176" y="0" type="line"/>
    </contour>
    <contour>
      <point x="761" y="-211" type="qcurve"/>
      <point x="821" y="-208"/>
      <point x="857" y="-244" type="qcurve"/>
      <point x="899" y="-278"/>
      <point x="896" y="-336" type="qcurve"/>
      <point x="896" y="-405"/>
      <point x="840" y="-449" type="qcurve"/>
      <point x="788" y="-492"/>
      <point x="705" y="-492" type="qcurve"/>
      <point x="660" y="-492"/>
      <point x="613" y="-478" type="qcurve"/>
      <point x="567" y="-460"/>
      <point x="535" y="-439" type="qcurve"/>
      <point x="572" y="-359" type="line"/>
      <point x="630" y="-401"/>
      <point x="699" y="-404" type="qcurve"/>
      <point x="740" y="-404"/>
      <point x="767" y="-383" type="qcurve"/>
      <point x="796" y="-360"/>
      <point x="793" y="-330" type="qcurve"/>
      <point x="796" y="-298"/>
      <point x="775" y="-283" type="qcurve"/>
      <point x="754" y="-262"/>
      <point x="718" y="-262" type="qcurve"/>
      <point x="684" y="-262"/>
      <point x="654" y="-285" type="qcurve"/>
      <point x="623" y="-252" type="line"/>
      <point x="687" y="-102" type="line"/>
      <point x="785" y="-102" type="line"/>
      <point x="740" y="-213" type="line"/>
      <point x="749" y="-208"/>
    </contour>
  </outline>
</glyph>
<glyph name="Lacute" format="2">
  <advance width="1069"/>
  <unicode hex="0139"/>
  <outline>
    <contour>
      <point x="1004" y="141" type="line"/>
      <point x="1004" y="0" type="line"/>
      <point x="131" y="0" type="line"/>
      <point x="131" y="1456" type="line"/>
      <point x="283" y="1456" type="line"/>
      <point x="283" y="141" type="line"/>
    </contour>
    <contour>
      <point x="609" y="1835" type="line"/>
      <point x="761" y="1800" type="line"/>
      <point x="488" y="1558" type="line"/>
      <point x="375" y="1558" type="line"/>
    </contour>
  </outline>
</glyph>
<glyph name="Lcedilla" format="2">
  <advance width="1069"/>
  <unicode hex="013B"/>
  <outline>
    <contour>
      <point x="1004" y="141" type="line"/>
      <point x="1004" y="0" type="line"/>
      <point x="131" y="0" type="line"/>
      <point x="131" y="1456" type="line"/>
      <point x="283" y="1456" type="line"/>
      <point x="283" y="141" type="line"/>
    </contour>
    <contour>
      <point x="613" y="-211" type="qcurve"/>
      <point x="673" y="-208"/>
      <point x="709" y="-244" type="qcurve"/>
      <point x="751" y="-278"/>
      <point x="748" y="-336" type="qcurve"/>
      <point x="748" y="-405"/>
      <point x="693" y="-449" type="qcurve"/>
      <point x="640" y="-492"/>
      <point x="558" y="-492" type="qcurve"/>
      <point x="513" y="-492"/>
      <point x="465" y="-478" type="qcurve"/>
      <point x="419" y="-460"/>
      <point x="387" y="-439" type="qcurve"/>
      <point x="424" y="-359" type="line"/>
      <point x="482" y="-401"/>
      <point x="551" y="-404" type="qcurve"/>
      <point x="592" y="-404"/>
      <point x="619" y="-383" type="qcurve"/>
      <point x="649" y="-360"/>
      <point x="646" y="-330" type="qcurve"/>
      <point x="648" y="-298"/>
      <point x="627" y="-283" type="qcurve"/>
      <point x="608" y="-262"/>
      <point x="570" y="-262" type="qcurve"/>
      <point x="536" y="-262"/>
      <point x="506" y="-285" type="qcurve"/>
      <point x="476" y="-252" type="line"/>
      <point x="539" y="-102" type="line"/>
      <point x="638" y="-102" type="line"/>
      <point x="592" y="-213" type="line"/>
      <point x="601" y="-208"/>
    </contour>
  </outline>
</glyph>
<glyph name="ncedilla" format="2">
  <advance width="1141"/>
  <unicode hex="0146"/>
  <outline>
    <contour>
      <point x="620" y="1021" type="qcurve"/>
      <point x="729" y="1024"/>
      <point x="813" y="972" type="qcurve"/>
      <point x="901" y="926"/>
      <point x="946" y="836" type="qcurve"/>
      <point x="996" y="750"/>
      <point x="993" y="636" type="qcurve"/>
      <point x="993" y="0" type="line"/>
      <point x="850" y="0" type="line"/>
      <point x="850" y="615" type="line"/>
      <point x="850" y="738"/>
      <point x="780" y="814" type="qcurve"/>
      <point x="713" y="892"/>
      <point x="602" y="890" type="qcurve"/>
      <point x="521" y="890"/>
      <point x="448" y="857" type="qcurve"/>
      <point x="377" y="824"/>
      <point x="333" y="761" type="qcurve"/>
      <point x="293" y="705"/>
      <point x="292" y="636" type="qcurve"/>
      <point x="292" y="0" type="line"/>
      <point x="147" y="0" type="line"/>
      <point x="147" y="996" type="line"/>
      <point x="292" y="996" type="line"/>
      <point x="292" y="836" type="line"/>
      <point x="335" y="917"/>
      <point x="425" y="968" type="qcurve"/>
      <point x="517" y="1022"/>
    </contour>
    <contour>
      <point x="616" y="-211" type="qcurve"/>
      <point x="676" y="-208"/>
      <point x="712" y="-244" type="qcurve"/>
      <point x="754" y="-278"/>
      <point x="751" y="-336" type="qcurve"/>
      <point x="751" y="-405"/>
      <point x="696" y="-449" type="qcurve"/>
      <point x="643" y="-492"/>
      <point x="561" y="-492" type="qcurve"/>
      <point x="516" y="-492"/>
      <point x="468" y="-478" type="qcurve"/>
      <point x="421" y="-460"/>
      <point x="391" y="-439" type="qcurve"/>
      <point x="427" y="-359" type="line"/>
      <point x="485" y="-401"/>
      <point x="555" y="-404" type="qcurve"/>
      <point x="597" y="-404"/>
      <point x="622" y="-383" type="qcurve"/>
      <point x="652" y="-360"/>
      <point x="649" y="-330" type="qcurve"/>
      <point x="651" y="-298"/>
      <point x="630" y="-283" type="qcurve"/>
      <point x="611" y="-262"/>
      <point x="573" y="-262" type="qcurve"/>
      <point x="539" y="-262"/>
      <point x="509" y="-285" type="qcurve"/>
      <point x="479" y="-252" type="line"/>
      <point x="542" y="-102" type="line"/>
      <point x="641" y="-102" type="line"/>
      <point x="596" y="-213" type="line"/>
      <point x="605" y="-208"/>
    </contour>
  </outline>
</glyph>
<glyph name="OE" format="2">
  <advance width="2200"/>
  <unicode hex="0152"/>
  <outline>
    <contour>
      <point x="1197" y="1310" type="line"/>
      <point x="1197" y="812" type="line"/>
      <point x="1999" y="812" type="line"/>
      <point x="1997" y="668" type="line"/>
      <point x="1197" y="668" type="line"/>
      <point x="1197" y="144" type="line"/>
      <point x="2085" y="144" type="line"/>
      <point x="2083" y="0" type="line"/>
      <point x="865" y="0" type="line"/>
      <point x="667" y="0"/>
      <point x="496" y="92" type="qcurve"/>
      <point x="324" y="185"/>
      <point x="219" y="344" type="qcurve"/>
      <point x="118" y="509"/>
      <point x="115" y="707" type="qcurve"/>
      <point x="115" y="908"/>
      <point x="219" y="1080" type="qcurve"/>
      <point x="324" y="1251"/>
      <point x="496" y="1353" type="qcurve"/>
      <point x="667" y="1456"/>
      <point x="865" y="1456" type="qcurve"/>
      <point x="2083" y="1456" type="line"/>
      <point x="2083" y="1310" type="line"/>
    </contour>
    <contour>
      <point x="1041" y="135" type="line"/>
      <point x="1041" y="1316" type="line"/>
      <point x="865" y="1316" type="line"/>
      <point x="707" y="1319"/>
      <point x="572" y="1232" type="qcurve"/>
      <point x="504" y="1190"/>
      <point x="451" y="1135" type="qcurve"/>
      <point x="399" y="1080"/>
      <point x="355" y="1011" type="qcurve"/>
      <point x="278" y="870"/>
      <point x="275" y="707" type="qcurve"/>
      <point x="275" y="543"/>
      <point x="353" y="414" type="qcurve"/>
      <point x="430" y="288"/>
      <point x="568" y="213" type="qcurve"/>
      <point x="703" y="140"/>
      <point x="865" y="137" type="qcurve"/>
    </contour>
  </outline>
</glyph>
<glyph name="oe" format="2">
  <advance width="2025"/>
  <unicode hex="0153"/>
  <outline>
    <contour>
      <point x="1476" y="105" type="qcurve"/>
      <point x="1566" y="108"/>
      <point x="1654" y="139" type="qcurve"/>
      <point x="1747" y="175"/>
      <point x="1792" y="226" type="qcurve"/>
      <point x="1880" y="131" type="line"/>
      <point x="1816" y="62"/>
      <point x="1702" y="20" type="qcurve"/>
      <point x="1588" y="-20"/>
      <point x="1478" y="-23" type="qcurve"/>
      <point x="1346" y="-23"/>
      <point x="1230" y="45" type="qcurve"/>
      <point x="1116" y="114"/>
      <point x="1048" y="228" type="qcurve"/>
      <point x="980" y="116"/>
      <point x="861" y="47" type="qcurve"/>
      <point x="744" y="-22"/>
      <point x="609" y="-23" type="qcurve"/>
      <point x="473" y="-20"/>
      <point x="353" y="49" type="qcurve"/>
      <point x="236" y="120"/>
      <point x="164" y="240" type="qcurve"/>
      <point x="94" y="362"/>
      <point x="94" y="498" type="qcurve"/>
      <point x="94" y="640"/>
      <point x="162" y="758" type="qcurve"/>
      <point x="234" y="882"/>
      <point x="353" y="949" type="qcurve"/>
      <point x="473" y="1021"/>
      <point x="609" y="1021" type="qcurve"/>
      <point x="742" y="1022"/>
      <point x="859" y="953" type="qcurve"/>
      <point x="976" y="887"/>
      <point x="1046" y="773" type="qcurve"/>
      <point x="1114" y="889"/>
      <point x="1224" y="953" type="qcurve"/>
      <point x="1338" y="1022"/>
      <point x="1464" y="1021" type="qcurve"/>
      <point x="1688" y="1021"/>
      <point x="1812" y="865" type="qcurve"/>
      <point x="1940" y="709"/>
      <point x="1937" y="445" type="qcurve"/>
      <point x="1121" y="445" type="line"/>
      <point x="1138" y="295"/>
      <point x="1234" y="201" type="qcurve"/>
      <point x="1330" y="108"/>
    </contour>
    <contour>
      <point x="609" y="105" type="qcurve"/>
      <point x="705" y="108"/>
      <point x="789" y="160" type="qcurve"/>
      <point x="874" y="214"/>
      <point x="920" y="301" type="qcurve"/>
      <point x="972" y="394"/>
      <point x="972" y="498" type="qcurve"/>
      <point x="974" y="603"/>
      <point x="922" y="693" type="qcurve"/>
      <point x="876" y="784"/>
      <point x="791" y="836" type="qcurve"/>
      <point x="705" y="890"/>
      <point x="609" y="890" type="qcurve"/>
      <point x="512" y="892"/>
      <point x="428" y="838" type="qcurve"/>
      <point x="344" y="786"/>
      <point x="293" y="693" type="qcurve"/>
      <point x="246" y="603"/>
      <point x="246" y="498" type="qcurve"/>
      <point x="244" y="394"/>
      <point x="291" y="303" type="qcurve"/>
      <point x="342" y="214"/>
      <point x="426" y="160" type="qcurve"/>
      <point x="513" y="108"/>
    </contour>
    <contour>
      <point x="1470" y="890" type="qcurve"/>
      <point x="1338" y="892"/>
      <point x="1240" y="804" type="qcurve"/>
      <point x="1144" y="718"/>
      <point x="1123" y="572" type="qcurve"/>
      <point x="1796" y="572" type="line"/>
      <point x="1780" y="718"/>
      <point x="1695" y="802" type="qcurve"/>
      <point x="1616" y="890"/>
    </contour>
  </outline>
</glyph>
<glyph name="Rcedilla" format="2">
  <advance width="1331"/>
  <unicode hex="0156"/>
  <outline>
    <contour>
      <point x="152" y="1456" type="line"/>
      <point x="689" y="1456" type="line"/>
      <point x="829" y="1456"/>
      <point x="937" y="1402" type="qcurve"/>
      <point x="1051" y="1350"/>
      <point x="1111" y="1253" type="qcurve"/>
      <point x="1180" y="1156"/>
      <point x="1179" y="1033" type="qcurve"/>
      <point x="1180" y="883"/>
      <point x="1076" y="767" type="qcurve"/>
      <point x="978" y="656"/>
      <point x="818" y="621" type="qcurve"/>
      <point x="1253" y="0" type="line"/>
      <point x="1078" y="0" type="line"/>
      <point x="654" y="607" type="line"/>
      <point x="301" y="607" type="line"/>
      <point x="301" y="0" type="line"/>
      <point x="152" y="0" type="line"/>
    </contour>
    <contour>
      <point x="301" y="1312" type="line"/>
      <point x="301" y="750" type="line"/>
      <point x="664" y="750" type="line"/>
      <point x="829" y="750"/>
      <point x="925" y="826" type="qcurve"/>
      <point x="1027" y="902"/>
      <point x="1027" y="1033" type="qcurve"/>
      <point x="1030" y="1164"/>
      <point x="927" y="1238" type="qcurve"/>
      <point x="828" y="1314"/>
      <point x="664" y="1312" type="qcurve"/>
    </contour>
    <contour>
      <point x="746" y="-211" type="qcurve"/>
      <point x="806" y="-208"/>
      <point x="843" y="-244" type="qcurve"/>
      <point x="885" y="-278"/>
      <point x="882" y="-336" type="qcurve"/>
      <point x="882" y="-405"/>
      <point x="826" y="-449" type="qcurve"/>
      <point x="774" y="-492"/>
      <point x="691" y="-492" type="qcurve"/>
      <point x="646" y="-492"/>
      <point x="599" y="-478" type="qcurve"/>
      <point x="551" y="-460"/>
      <point x="521" y="-439" type="qcurve"/>
      <point x="558" y="-359" type="line"/>
      <point x="616" y="-401"/>
      <point x="685" y="-404" type="qcurve"/>
      <point x="726" y="-404"/>
      <point x="752" y="-383" type="qcurve"/>
      <point x="782" y="-360"/>
      <point x="779" y="-330" type="qcurve"/>
      <point x="782" y="-298"/>
      <point x="761" y="-283" type="qcurve"/>
      <point x="740" y="-262"/>
      <point x="703" y="-262" type="qcurve"/>
      <point x="668" y="-262"/>
      <point x="640" y="-285" type="qcurve"/>
      <point x="609" y="-252" type="line"/>
      <point x="672" y="-102" type="line"/>
      <point x="771" y="-102" type="line"/>
      <point x="726" y="-213" type="line"/>
      <point x="734" y="-208"/>
    </contour>
  </outline>
</glyph>
<glyph name="Utilde" format="2">
  <advance width="1438"/>
  <unicode hex="0168"/>
  <outline>
    <contour>
      <point x="720" y="-23" type="qcurve"/>
      <point x="564" y="-23"/>
      <point x="435" y="51" type="qcurve"/>
      <point x="308" y="128"/>
      <point x="238" y="254" type="qcurve"/>
      <point x="169" y="388"/>
      <point x="166" y="549" type="qcurve"/>
      <point x="166" y="1456" type="line"/>
      <point x="316" y="1456" type="line"/>
      <point x="316" y="549" type="line"/>
      <point x="316" y="426"/>
      <point x="369" y="326" type="qcurve"/>
      <point x="420" y="228"/>
      <point x="510" y="170" type="qcurve"/>
      <point x="603" y="116"/>
      <point x="720" y="113" type="qcurve"/>
      <point x="834" y="116"/>
      <point x="925" y="170" type="qcurve"/>
      <point x="1018" y="226"/>
      <point x="1070" y="324" type="qcurve"/>
      <point x="1124" y="424"/>
      <point x="1121" y="549" type="qcurve"/>
      <point x="1121" y="1456" type="line"/>
      <point x="1271" y="1456" type="line"/>
      <point x="1271" y="549" type="line"/>
      <point x="1275" y="388"/>
      <point x="1203" y="254" type="qcurve"/>
      <point x="1136" y="128"/>
      <point x="1007" y="51" type="qcurve"/>
      <point x="878" y="-23"/>
    </contour>
    <contour>
      <point x="845" y="1562" type="qcurve"/>
      <point x="805" y="1560"/>
      <point x="773" y="1578" type="qcurve"/>
      <point x="745" y="1600"/>
      <point x="695" y="1634" type="qcurve"/>
      <point x="666" y="1666"/>
      <point x="642" y="1677" type="qcurve"/>
      <point x="621" y="1692"/>
      <point x="594" y="1689" type="qcurve"/>
      <point x="561" y="1690"/>
      <point x="535" y="1658" type="qcurve"/>
      <point x="510" y="1628"/>
      <point x="498" y="1558" type="qcurve"/>
      <point x="410" y="1570" type="line"/>
      <point x="442" y="1800"/>
      <point x="594" y="1800" type="qcurve"/>
      <point x="634" y="1802"/>
      <point x="664" y="1784" type="qcurve"/>
      <point x="698" y="1766"/>
      <point x="744" y="1728" type="qcurve"/>
      <point x="777" y="1700"/>
      <point x="797" y="1687" type="qcurve"/>
      <point x="823" y="1675"/>
      <point x="845" y="1675" type="qcurve"/>
      <point x="884" y="1676"/>
      <point x="906" y="1706" type="qcurve"/>
      <point x="930" y="1736"/>
      <point x="941" y="1804" type="qcurve"/>
      <point x="1029" y="1792" type="line"/>
      <point x="998" y="1564"/>
    </contour>
  </outline>
</glyph>
<glyph name="utilde" format="2">
  <advance width="1141"/>
  <unicode hex="0169"/>
  <outline>
    <contour>
      <point x="520" y="-25" type="qcurve"/>
      <point x="411" y="-26"/>
      <point x="327" y="25" type="qcurve"/>
      <point x="239" y="73"/>
      <point x="194" y="160" type="qcurve"/>
      <point x="145" y="247"/>
      <point x="147" y="361" type="qcurve"/>
      <point x="147" y="996" type="line"/>
      <point x="290" y="996" type="line"/>
      <point x="290" y="381" type="line"/>
      <point x="291" y="258"/>
      <point x="360" y="182" type="qcurve"/>
      <point x="427" y="106"/>
      <point x="538" y="107" type="qcurve"/>
      <point x="620" y="107"/>
      <point x="692" y="139" type="qcurve"/>
      <point x="765" y="172"/>
      <point x="807" y="236" type="qcurve"/>
      <point x="849" y="292"/>
      <point x="848" y="361" type="qcurve"/>
      <point x="848" y="996" type="line"/>
      <point x="993" y="996" type="line"/>
      <point x="993" y="0" type="line"/>
      <point x="848" y="0" type="line"/>
      <point x="848" y="160" type="line"/>
      <point x="806" y="80"/>
      <point x="714" y="29" type="qcurve"/>
      <point x="625" y="-25"/>
    </contour>
    <contour>
      <point x="698" y="1103" type="qcurve"/>
      <point x="658" y="1101"/>
      <point x="626" y="1119" type="qcurve"/>
      <point x="599" y="1140"/>
      <point x="548" y="1175" type="qcurve"/>
      <point x="521" y="1206"/>
      <point x="495" y="1218" type="qcurve"/>
      <point x="475" y="1233"/>
      <point x="448" y="1230" type="qcurve"/>
      <point x="413" y="1230"/>
      <point x="389" y="1199" type="qcurve"/>
      <point x="365" y="1168"/>
      <point x="352" y="1099" type="qcurve"/>
      <point x="263" y="1111" type="line"/>
      <point x="295" y="1342"/>
      <point x="448" y="1341" type="qcurve"/>
      <point x="487" y="1344"/>
      <point x="518" y="1324" type="qcurve"/>
      <point x="551" y="1306"/>
      <point x="598" y="1269" type="qcurve"/>
      <point x="631" y="1240"/>
      <point x="651" y="1228" type="qcurve"/>
      <point x="675" y="1216"/>
      <point x="698" y="1216" type="qcurve"/>
      <point x="737" y="1216"/>
      <point x="760" y="1246" type="qcurve"/>
      <point x="782" y="1278"/>
      <point x="794" y="1345" type="qcurve"/>
      <point x="883" y="1332" type="line"/>
      <point x="853" y="1106"/>
    </contour>
  </outline>
</glyph>
<glyph name="Uring" format="2">
  <advance width="1438"/>
  <unicode hex="016E"/>
  <outline>
    <contour>
      <point x="720" y="-23" type="qcurve"/>
      <point x="564" y="-23"/>
      <point x="435" y="51" type="qcurve"/>
      <point x="308" y="128"/>
      <point x="238" y="254" type="qcurve"/>
      <point x="169" y="388"/>
      <point x="166" y="549" type="qcurve"/>
      <point x="166" y="1456" type="line"/>
      <point x="316" y="1456" type="line"/>
      <point x="316" y="549" type="line"/>
      <point x="316" y="426"/>
      <point x="369" y="326" type="qcurve"/>
      <point x="420" y="228"/>
      <point x="510" y="170" type="qcurve"/>
      <point x="603" y="116"/>
      <point x="720" y="113" type="qcurve"/>
      <point x="834" y="116"/>
      <point x="925" y="170" type="qcurve"/>
      <point x="1018" y="226"/>
      <point x="1070" y="324" type="qcurve"/>
      <point x="1124" y="424"/>
      <point x="1121" y="549" type="qcurve"/>
      <point x="1121" y="1456" type="line"/>
      <point x="1271" y="1456" type="line"/>
      <point x="1271" y="549" type="line"/>
      <point x="1275" y="388"/>
      <point x="1203" y="254" type="qcurve"/>
      <point x="1136" y="128"/>
      <point x="1007" y="51" type="qcurve"/>
      <point x="878" y="-23"/>
    </contour>
    <contour>
      <point x="720" y="1558" type="qcurve"/>
      <point x="638" y="1558"/>
      <point x="578" y="1615" type="qcurve"/>
      <point x="521" y="1673"/>
      <point x="521" y="1757" type="qcurve"/>
      <point x="521" y="1842"/>
      <point x="578" y="1896" type="qcurve"/>
      <point x="638" y="1956"/>
      <point x="720" y="1956" type="qcurve"/>
      <point x="807" y="1956"/>
      <point x="861" y="1896" type="qcurve"/>
      <point x="918" y="1842"/>
      <point x="918" y="1757" type="qcurve"/>
      <point x="918" y="1673"/>
      <point x="861" y="1615" type="qcurve"/>
      <point x="807" y="1558"/>
    </contour>
    <contour>
      <point x="720" y="1644" type="qcurve"/>
      <point x="766" y="1644"/>
      <point x="800" y="1677" type="qcurve"/>
      <point x="834" y="1710"/>
      <point x="834" y="1757" type="qcurve"/>
      <point x="834" y="1804"/>
      <point x="802" y="1837" type="qcurve"/>
      <point x="768" y="1870"/>
      <point x="720" y="1870" type="qcurve"/>
      <point x="675" y="1870"/>
      <point x="642" y="1839" type="qcurve"/>
      <point x="610" y="1805"/>
      <point x="607" y="1757" type="qcurve"/>
      <point x="607" y="1710"/>
      <point x="640" y="1677" type="qcurve"/>
      <point x="674" y="1644"/>
    </contour>
  </outline>
</glyph>
<glyph name="ycircumflex" format="2">
  <advance width="1143"/>
  <unicode hex="0177"/>
  <outline>
    <contour>
      <point x="351" y="-379" type="line"/>
      <point x="498" y="0" type="line"/>
      <point x="57" y="996" type="line"/>
      <point x="217" y="996" type="line"/>
      <point x="570" y="172" type="line"/>
      <point x="896" y="996" type="line"/>
      <point x="1054" y="996" type="line"/>
      <point x="492" y="-379" type="line"/>
    </contour>
    <contour>
      <point x="486" y="1363" type="line"/>
      <point x="621" y="1363" type="line"/>
      <point x="818" y="1099" type="line"/>
      <point x="705" y="1099" type="line"/>
      <point x="554" y="1263" type="line"/>
      <point x="404" y="1099" type="line"/>
      <point x="293" y="1099" type="line"/>
    </contour>
  </outline>
</glyph>
<glyph name="zcaron" format="2">
  <advance width="991"/>
  <unicode hex="017E"/>
  <outline>
    <contour>
      <point x="102" y="113" type="line"/>
      <point x="691" y="861" type="line"/>
      <point x="115" y="861" type="line"/>
      <point x="115" y="996" type="line"/>
      <point x="886" y="996" type="line"/>
      <point x="886" y="882" type="line"/>
      <point x="295" y="135" type="line"/>
      <point x="890" y="135" type="line"/>
      <point x="890" y="0" type="line"/>
      <point x="102" y="0" type="line"/>
    </contour>
    <contour>
      <point x="234" y="1363" type="line"/>
      <point x="344" y="1363" type="line"/>
      <point x="494" y="1197" type="line"/>
      <point x="646" y="1363" type="line"/>
      <point x="758" y="1363" type="line"/>
      <point x="562" y="1099" type="line"/>
      <point x="426" y="1099" type="line"/>
    </contour>
  </outline>
</glyph>
<glyph name="Ohorn" format="2">
  <advance width="1702"/>
  <unicode hex="01A0"/>
  <outline>
    <contour>
      <point x="845" y="-23" type="qcurve"/>
      <point x="650" y="-22"/>
      <point x="478" y="80" type="qcurve"/>
      <point x="307" y="184"/>
      <point x="203" y="355" type="qcurve"/>
      <point x="98" y="527"/>
      <point x="98" y="728" type="qcurve"/>
      <point x="98" y="932"/>
      <point x="203" y="1101" type="qcurve"/>
      <point x="308" y="1274"/>
      <point x="476" y="1376" type="qcurve"/>
      <point x="648" y="1481"/>
      <point x="845" y="1478" type="qcurve"/>
      <point x="1046" y="1480"/>
      <point x="1212" y="1378" type="qcurve"/>
      <point x="1380" y="1276"/>
      <point x="1484" y="1103" type="qcurve"/>
      <point x="1588" y="935"/>
      <point x="1585" y="728" type="qcurve"/>
      <point x="1588" y="527"/>
      <point x="1484" y="355" type="qcurve"/>
      <point x="1385" y="187"/>
      <point x="1214" y="82" type="qcurve"/>
      <point x="1046" y="-20"/>
    </contour>
    <contour>
      <point x="845" y="129" type="qcurve"/>
      <point x="996" y="132"/>
      <point x="1136" y="213" type="qcurve"/>
      <point x="1277" y="295"/>
      <point x="1353" y="433" type="qcurve"/>
      <point x="1436" y="574"/>
      <point x="1433" y="728" type="qcurve"/>
      <point x="1434" y="882"/>
      <point x="1353" y="1025" type="qcurve"/>
      <point x="1276" y="1164"/>
      <point x="1138" y="1244" type="qcurve"/>
      <point x="998" y="1326"/>
      <point x="845" y="1326" type="qcurve"/>
      <point x="692" y="1328"/>
      <point x="551" y="1246" type="qcurve"/>
      <point x="482" y="1204"/>
      <point x="429" y="1152" type="qcurve"/>
      <point x="376" y="1101"/>
      <point x="334" y="1029" type="qcurve"/>
      <point x="254" y="888"/>
      <point x="254" y="728" type="qcurve"/>
      <point x="251" y="574"/>
      <point x="332" y="433" type="qcurve"/>
      <point x="376" y="364"/>
      <point x="427" y="310" type="qcurve"/>
      <point x="480" y="256"/>
      <point x="549" y="213" type="qcurve"/>
      <point x="690" y="127"/>
    </contour>
    <contour>
      <point x="734" y="1635" type="line"/>
      <point x="812" y="1726"/>
      <point x="836" y="1814" type="qcurve"/>
      <point x="794" y="1814"/>
      <point x="760" y="1844" type="qcurve"/>
      <point x="730" y="1878"/>
      <point x="730" y="1920" type="qcurve"/>
      <point x="730" y="1962"/>
      <point x="760" y="1990" type="qcurve"/>
      <point x="792" y="2022"/>
      <point x="836" y="2023" type="qcurve"/>
      <point x="890" y="2026"/>
      <point x="920" y="1980" type="qcurve"/>
      <point x="953" y="1940"/>
      <point x="953" y="1869" type="qcurve"/>
      <point x="955" y="1818"/>
      <point x="922" y="1752" type="qcurve"/>
      <point x="892" y="1694"/>
      <point x="805" y="1582" type="qcurve"/>
    </contour>
  </outline>
</glyph>
<glyph name="Ocaron" format="2">
  <advance width="1702"/>
  <unicode hex="01D1"/>
  <outline>
    <contour>
      <point x="845" y="-23" type="qcurve"/>
      <point x="649" y="-22"/>
      <point x="478" y="80" type="qcurve"/>
      <point x="306" y="184"/>
      <point x="203" y="355" type="qcurve"/>
      <point x="98" y="527"/>
      <point x="98" y="728" type="qcurve"/>
      <point x="98" y="932"/>
      <point x="203" y="1101" type="qcurve"/>
      <point x="308" y="1274"/>
      <point x="476" y="1376" type="qcurve"/>
      <point x="648" y="1481"/>
      <point x="845" y="1478" type="qcurve"/>
      <point x="1046" y="1480"/>
      <point x="1212" y="1378" type="qcurve"/>
      <point x="1380" y="1276"/>
      <point x="1484" y="1103" type="qcurve"/>
      <point x="1588" y="934"/>
      <point x="1585" y="728" type="qcurve"/>
      <point x="1588" y="527"/>
      <point x="1484" y="355" type="qcurve"/>
      <point x="1385" y="187"/>
      <point x="1214" y="82" type="qcurve"/>
      <point x="1046" y="-20"/>
    </contour>
    <contour>
      <point x="845" y="129" type="qcurve"/>
      <point x="996" y="132"/>
      <point x="1136" y="213" type="qcurve"/>
      <point x="1276" y="295"/>
      <point x="1353" y="433" type="qcurve"/>
      <point x="1436" y="574"/>
      <point x="1433" y="728" type="qcurve"/>
      <point x="1434" y="882"/>
      <point x="1353" y="1025" type="qcurve"/>
      <point x="1276" y="1164"/>
      <point x="1138" y="1244" type="qcurve"/>
      <point x="998" y="1326"/>
      <point x="845" y="1326" type="qcurve"/>
      <point x="692" y="1328"/>
      <point x="551" y="1246" type="qcurve"/>
      <point x="482" y="1204"/>
      <point x="429" y="1152" type="qcurve"/>
      <point x="376" y="1101"/>
      <point x="334" y="1029" type="qcurve"/>
      <point x="254" y="887"/>
      <point x="254" y="728" type="qcurve"/>
      <point x="251" y="574"/>
      <point x="332" y="433" type="qcurve"/>
      <point x="376" y="364"/>
      <point x="427" y="310" type="qcurve"/>
      <point x="480" y="256"/>
      <point x="549" y="213" type="qcurve"/>
      <point x="690" y="127"/>
    </contour>
    <contour>
      <point x="580" y="1847" type="line"/>
      <point x="691" y="1847" type="line"/>
      <point x="840" y="1681" type="line"/>
      <point x="992" y="1847" type="line"/>
      <point x="1105" y="1847" type="line"/>
      <point x="908" y="1583" type="line"/>
      <point x="773" y="1583" type="line"/>
    </contour>
  </outline>
</glyph>
<glyph name="Edblgrave" format="2">
  <advance width="1208"/>
  <unicode hex="0204"/>
  <outline>
    <contour>
      <point x="303" y="1312" type="line"/>
      <point x="303" y="812" type="line"/>
      <point x="1025" y="812" type="line"/>
      <point x="1025" y="670" type="line"/>
      <point x="303" y="670" type="line"/>
      <point x="303" y="141" type="line"/>
      <point x="1103" y="141" type="line"/>
      <point x="1103" y="0" type="line"/>
      <point x="152" y="0" type="line"/>
      <point x="152" y="1456" type="line"/>
      <point x="1103" y="1456" type="line"/>
      <point x="1103" y="1312" type="line"/>
    </contour>
    <contour>
      <point x="779" y="1837" type="line"/>
      <point x="628" y="1802" type="line"/>
      <point x="900" y="1558" type="line"/>
      <point x="1013" y="1558" type="line"/>
    </contour>
    <contour>
      <point x="394" y="1833" type="line"/>
      <point x="242" y="1798" type="line"/>
      <point x="515" y="1558" type="line"/>
      <point x="628" y="1558" type="line"/>
    </contour>
  </outline>
</glyph>
<glyph name="Idblgrave" format="2">
  <advance width="455"/>
  <unicode hex="0208"/>
  <outline>
    <contour>
      <point x="152" y="1456" type="line"/>
      <point x="301" y="1456" type="line"/>
      <point x="301" y="0" type="line"/>
      <point x="152" y="0" type="line"/>
    </contour>
    <contour>
      <point x="377" y="1837" type="line"/>
      <point x="226" y="1802" type="line"/>
      <point x="498" y="1558" type="line"/>
      <point x="611" y="1558" type="line"/>
    </contour>
    <contour>
      <point x="-8" y="1833" type="line"/>
      <point x="-160" y="1798" type="line"/>
      <point x="113" y="1558" type="line"/>
      <point x="226" y="1558" type="line"/>
    </contour>
  </outline>
</glyph>
<glyph name="idblgrave" format="2">
  <advance width="434"/>
  <unicode hex="0209"/>
  <outline>
    <contour>
      <point x="144" y="996" type="line"/>
      <point x="289" y="996" type="line"/>
      <point x="289" y="0" type="line"/>
      <point x="144" y="0" type="line"/>
    </contour>
    <contour>
      <point x="367" y="1377" type="line"/>
      <point x="216" y="1342" type="line"/>
      <point x="488" y="1098" type="line"/>
      <point x="601" y="1098" type="line"/>
    </contour>
    <contour>
      <point x="-18" y="1373" type="line"/>
      <point x="-170" y="1338" type="line"/>
      <point x="103" y="1098" type="line"/>
      <point x="216" y="1098" type="line"/>
    </contour>
  </outline>
</glyph>
<glyph name="Udblgrave" format="2">
  <advance width="1438"/>
  <unicode hex="0214"/>
  <outline>
    <contour>
      <point x="720" y="-23" type="qcurve"/>
      <point x="564" y="-23"/>
      <point x="435" y="51" type="qcurve"/>
      <point x="308" y="128"/>
      <point x="238" y="254" type="qcurve"/>
      <point x="169" y="389"/>
      <point x="166" y="549" type="qcurve"/>
      <point x="166" y="1456" type="line"/>
      <point x="316" y="1456" type="line"/>
      <point x="316" y="549" type="line"/>
      <point x="316" y="426"/>
      <point x="369" y="326" type="qcurve"/>
      <point x="420" y="228"/>
      <point x="510" y="170" type="qcurve"/>
      <point x="603" y="116"/>
      <point x="720" y="113" type="qcurve"/>
      <point x="834" y="116"/>
      <point x="925" y="170" type="qcurve"/>
      <point x="1018" y="226"/>
      <point x="1070" y="324" type="qcurve"/>
      <point x="1124" y="424"/>
      <point x="1121" y="549" type="qcurve"/>
      <point x="1121" y="1456" type="line"/>
      <point x="1271" y="1456" type="line"/>
      <point x="1271" y="549" type="line"/>
      <point x="1275" y="389"/>
      <point x="1203" y="254" type="qcurve"/>
      <point x="1136" y="128"/>
      <point x="1007" y="51" type="qcurve"/>
      <point x="878" y="-23"/>
    </contour>
    <contour>
      <point x="871" y="1837" type="line"/>
      <point x="720" y="1802" type="line"/>
      <point x="992" y="1558" type="line"/>
      <point x="1105" y="1558" type="line"/>
    </contour>
    <contour>
      <point x="486" y="1833" type="line"/>
      <point x="334" y="1798" type="line"/>
      <point x="607" y="1558" type="line"/>
      <point x="720" y="1558" type="line"/>
    </contour>
  </outline>
</glyph>
<glyph name="udblgrave" format="2">
  <advance width="1141"/>
  <unicode hex="0215"/>
  <outline>
    <contour>
      <point x="515" y="-25" type="qcurve"/>
      <point x="406" y="-26"/>
      <point x="322" y="25" type="qcurve"/>
      <point x="234" y="73"/>
      <point x="189" y="160" type="qcurve"/>
      <point x="139" y="247"/>
      <point x="141" y="361" type="qcurve"/>
      <point x="141" y="996" type="line"/>
      <point x="285" y="996" type="line"/>
      <point x="285" y="381" type="line"/>
      <point x="286" y="258"/>
      <point x="355" y="182" type="qcurve"/>
      <point x="422" y="107"/>
      <point x="533" y="107" type="qcurve"/>
      <point x="615" y="107"/>
      <point x="687" y="139" type="qcurve"/>
      <point x="758" y="172"/>
      <point x="802" y="236" type="qcurve"/>
      <point x="844" y="292"/>
      <point x="843" y="361" type="qcurve"/>
      <point x="843" y="996" type="line"/>
      <point x="988" y="996" type="line"/>
      <point x="988" y="0" type="line"/>
      <point x="843" y="0" type="line"/>
      <point x="843" y="160" type="line"/>
      <point x="802" y="80"/>
      <point x="709" y="29" type="qcurve"/>
      <point x="620" y="-25"/>
    </contour>
    <contour>
      <point x="714" y="1377" type="line"/>
      <point x="563" y="1342" type="line"/>
      <point x="835" y="1098" type="line"/>
      <point x="948" y="1098" type="line"/>
    </contour>
    <contour>
      <point x="329" y="1373" type="line"/>
      <point x="177" y="1338" type="line"/>
      <point x="450" y="1098" type="line"/>
      <point x="563" y="1098" type="line"/>
    </contour>
  </outline>
</glyph>
<glyph name="Adotabove" format="2">
  <advance width="1352"/>
  <unicode hex="0226"/>
  <outline>
    <contour>
      <point x="596" y="1456" type="line"/>
      <point x="760" y="1456" type="line"/>
      <point x="1288" y="0" type="line"/>
      <point x="1127" y="0" type="line"/>
      <point x="977" y="418" type="line"/>
      <point x="378" y="418" type="line"/>
      <point x="225" y="0" type="line"/>
      <point x="63" y="0" type="line"/>
    </contour>
    <contour>
      <point x="678" y="1234" type="line"/>
      <point x="429" y="558" type="line"/>
      <point x="926" y="558" type="line"/>
    </contour>
    <contour>
      <point x="671" y="1736" type="qcurve"/>
      <point x="709" y="1736"/>
      <point x="735" y="1710" type="qcurve"/>
      <point x="762" y="1684"/>
      <point x="762" y="1648" type="qcurve"/>
      <point x="762" y="1612"/>
      <point x="735" y="1585" type="qcurve"/>
      <point x="709" y="1558"/>
      <point x="671" y="1558" type="qcurve"/>
      <point x="635" y="1558"/>
      <point x="610" y="1584" type="qcurve"/>
      <point x="586" y="1612"/>
      <point x="583" y="1648" type="qcurve"/>
      <point x="586" y="1683"/>
      <point x="610" y="1709" type="qcurve"/>
      <point x="635" y="1736"/>
    </contour>
  </outline>
</glyph>
<glyph name="Ecedilla" format="2">
  <advance width="1208"/>
  <unicode hex="0228"/>
  <outline>
    <contour>
      <point x="303" y="1312" type="line"/>
      <point x="303" y="812" type="line"/>
      <point x="1025" y="812" type="line"/>
      <point x="1025" y="670" type="line"/>
      <point x="303" y="670" type="line"/>
      <point x="303" y="141" type="line"/>
      <point x="1103" y="141" type="line"/>
      <point x="1103" y="0" type="line"/>
      <point x="152" y="0" type="line"/>
      <point x="152" y="1456" type="line"/>
      <point x="1103" y="1456" type="line"/>
      <point x="1103" y="1312" type="line"/>
    </contour>
    <contour>
      <point x="672" y="-211" type="qcurve"/>
      <point x="732" y="-208"/>
      <point x="769" y="-244" type="qcurve"/>
      <point x="811" y="-278"/>
      <point x="808" y="-336" type="qcurve"/>
      <point x="808" y="-405"/>
      <point x="752" y="-449" type="qcurve"/>
      <point x="700" y="-492"/>
      <point x="617" y="-492" type="qcurve"/>
      <point x="572" y="-492"/>
      <point x="525" y="-478" type="qcurve"/>
      <point x="479" y="-460"/>
      <point x="447" y="-439" type="qcurve"/>
      <point x="484" y="-359" type="line"/>
      <point x="542" y="-401"/>
      <point x="611" y="-404" type="qcurve"/>
      <point x="652" y="-404"/>
      <point x="679" y="-383" type="qcurve"/>
      <point x="708" y="-360"/>
      <point x="705" y="-330" type="qcurve"/>
      <point x="708" y="-298"/>
      <point x="687" y="-283" type="qcurve"/>
      <point x="666" y="-262"/>
      <point x="629" y="-262" type="qcurve"/>
      <point x="594" y="-262"/>
      <point x="566" y="-285" type="qcurve"/>
      <point x="535" y="-252" type="line"/>
      <point x="599" y="-102" type="line"/>
      <point x="697" y="-102" type="line"/>
      <point x="652" y="-213" type="line"/>
      <point x="660" y="-208"/>
    </contour>
  </outline>
</glyph>
<glyph name="ecedilla" format="2">
  <advance width="1147"/>
  <unicode hex="0229"/>
  <outline>
    <contour>
      <point x="597" y="105" type="qcurve"/>
      <point x="686" y="108"/>
      <point x="773" y="139" type="qcurve"/>
      <point x="866" y="175"/>
      <point x="910" y="226" type="qcurve"/>
      <point x="998" y="131" type="line"/>
      <point x="936" y="62"/>
      <point x="822" y="20" type="qcurve"/>
      <point x="708" y="-20"/>
      <point x="599" y="-23" type="qcurve"/>
      <point x="464" y="-23"/>
      <point x="348" y="45" type="qcurve"/>
      <point x="234" y="112"/>
      <point x="164" y="232" type="qcurve"/>
      <point x="94" y="354"/>
      <point x="94" y="500" type="qcurve"/>
      <point x="92" y="648"/>
      <point x="158" y="765" type="qcurve"/>
      <point x="226" y="887"/>
      <point x="336" y="953" type="qcurve"/>
      <point x="452" y="1022"/>
      <point x="584" y="1021" type="qcurve"/>
      <point x="808" y="1021"/>
      <point x="931" y="865" type="qcurve"/>
      <point x="1058" y="709"/>
      <point x="1058" y="445" type="qcurve"/>
      <point x="242" y="445" type="line"/>
      <point x="258" y="295"/>
      <point x="353" y="201" type="qcurve"/>
      <point x="452" y="108"/>
    </contour>
    <contour>
      <point x="590" y="890" type="qcurve"/>
      <point x="455" y="892"/>
      <point x="359" y="804" type="qcurve"/>
      <point x="265" y="718"/>
      <point x="244" y="572" type="qcurve"/>
      <point x="914" y="572" type="line"/>
      <point x="900" y="718"/>
      <point x="816" y="802" type="qcurve"/>
      <point x="736" y="890"/>
    </contour>
    <contour>
      <point x="621" y="-234" type="qcurve"/>
      <point x="682" y="-232"/>
      <point x="718" y="-266" type="qcurve"/>
      <point x="758" y="-300"/>
      <point x="756" y="-359" type="qcurve"/>
      <point x="756" y="-428"/>
      <point x="701" y="-472" type="qcurve"/>
      <point x="648" y="-514"/>
      <point x="566" y="-515" type="qcurve"/>
      <point x="522" y="-515"/>
      <point x="474" y="-500" type="qcurve"/>
      <point x="426" y="-484"/>
      <point x="396" y="-461" type="qcurve"/>
      <point x="433" y="-381" type="line"/>
      <point x="490" y="-423"/>
      <point x="560" y="-426" type="qcurve"/>
      <point x="602" y="-426"/>
      <point x="627" y="-406" type="qcurve"/>
      <point x="657" y="-382"/>
      <point x="654" y="-353" type="qcurve"/>
      <point x="657" y="-321"/>
      <point x="636" y="-305" type="qcurve"/>
      <point x="616" y="-284"/>
      <point x="578" y="-285" type="qcurve"/>
      <point x="544" y="-284"/>
      <point x="515" y="-308" type="qcurve"/>
      <point x="484" y="-275" type="line"/>
      <point x="547" y="-125" type="line"/>
      <point x="646" y="-125" type="line"/>
      <point x="601" y="-236" type="line"/>
      <point x="610" y="-232"/>
    </contour>
  </outline>
</glyph>
<glyph name="Odotabove" format="2">
  <advance width="1702"/>
  <unicode hex="022E"/>
  <outline>
    <contour>
      <point x="845" y="-23" type="qcurve"/>
      <point x="649" y="-22"/>
      <point x="478" y="80" type="qcurve"/>
      <point x="306" y="184"/>
      <point x="203" y="355" type="qcurve"/>
      <point x="98" y="527"/>
      <point x="98" y="728" type="qcurve"/>
      <point x="98" y="932"/>
      <point x="203" y="1101" type="qcurve"/>
      <point x="308" y="1274"/>
      <point x="476" y="1376" type="qcurve"/>
      <point x="648" y="1481"/>
      <point x="845" y="1478" type="qcurve"/>
      <point x="1046" y="1480"/>
      <point x="1212" y="1378" type="qcurve"/>
      <point x="1380" y="1276"/>
      <point x="1484" y="1103" type="qcurve"/>
      <point x="1588" y="934"/>
      <point x="1585" y="728" type="qcurve"/>
      <point x="1588" y="527"/>
      <point x="1484" y="355" type="qcurve"/>
      <point x="1385" y="187"/>
      <point x="1214" y="82" type="qcurve"/>
      <point x="1046" y="-20"/>
    </contour>
    <contour>
      <point x="845" y="129" type="qcurve"/>
      <point x="996" y="132"/>
      <point x="1136" y="213" type="qcurve"/>
      <point x="1276" y="295"/>
      <point x="1353" y="433" type="qcurve"/>
      <point x="1436" y="574"/>
      <point x="1433" y="728" type="qcurve"/>
      <point x="1434" y="882"/>
      <point x="1353" y="1025" type="qcurve"/>
      <point x="1276" y="1164"/>
      <point x="1138" y="1244" type="qcurve"/>
      <point x="998" y="1326"/>
      <point x="845" y="1326" type="qcurve"/>
      <point x="692" y="1328"/>
      <point x="551" y="1246" type="qcurve"/>
      <point x="482" y="1204"/>
      <point x="429" y="1152" type="qcurve"/>
      <point x="376" y="1101"/>
      <point x="334" y="1029" type="qcurve"/>
      <point x="254" y="887"/>
      <point x="254" y="728" type="qcurve"/>
      <point x="251" y="574"/>
      <point x="332" y="433" type="qcurve"/>
      <point x="376" y="364"/>
      <point x="427" y="310" type="qcurve"/>
      <point x="480" y="256"/>
      <point x="549" y="213" type="qcurve"/>
      <point x="690" y="127"/>
    </contour>
    <contour>
      <point x="840" y="1761" type="qcurve"/>
      <point x="878" y="1762"/>
      <point x="904" y="1735" type="qcurve"/>
      <point x="931" y="1708"/>
      <point x="931" y="1673" type="qcurve"/>
      <point x="931" y="1637"/>
      <point x="904" y="1610" type="qcurve"/>
      <point x="878" y="1583"/>
      <point x="840" y="1583" type="qcurve"/>
      <point x="804" y="1582"/>
      <point x="779" y="1609" type="qcurve"/>
      <point x="755" y="1636"/>
      <point x="752" y="1673" type="qcurve"/>
      <point x="755" y="1708"/>
      <point x="779" y="1734" type="qcurve"/>
      <point x="804" y="1761"/>
    </contour>
  </outline>
</glyph>
<glyph name="ymacron" format="2">
  <advance width="1143"/>
  <unicode hex="0233"/>
  <outline>
    <contour>
      <point x="351" y="-379" type="line"/>
      <point x="498" y="0" type="line"/>
      <point x="57" y="996" type="line"/>
      <point x="217" y="996" type="line"/>
      <point x="570" y="172" type="line"/>
      <point x="896" y="996" type="line"/>
      <point x="1054" y="996" type="line"/>
      <point x="492" y="-379" type="line"/>
    </contour>
    <contour>
      <point x="403" y="1423" type="line"/>
      <point x="928" y="1423" type="line"/>
      <point x="928" y="1313" type="line"/>
      <point x="403" y="1313" type="line"/>
    </contour>
    <contour>
      <point x="183" y="1098" type="line"/>
      <point x="183" y="1098" type="line"/>
      <point x="183" y="1098" type="line"/>
      <point x="183" y="1098" type="line"/>
    </contour>
    <contour>
      <point x="183" y="1098" type="line"/>
      <point x="183" y="1098" type="line"/>
      <point x="183" y="1098" type="line"/>
      <point x="183" y="1098" type="line"/>
    </contour>
  </outline>
</glyph>
<glyph name="firsttonechinese" format="2">
  <advance width="766"/>
  <unicode hex="02C9"/>
  <unicode hex="0304"/>
  <outline>
    <contour>
      <point x="121" y="1320" type="line"/>
      <point x="646" y="1320" type="line"/>
      <point x="646" y="1210" type="line"/>
      <point x="121" y="1210" type="line"/>
    </contour>
    <contour>
      <point x="-99" y="995" type="line"/>
      <point x="-99" y="995" type="line"/>
      <point x="-99" y="995" type="line"/>
      <point x="-99" y="995" type="line"/>
    </contour>
    <contour>
      <point x="-99" y="995" type="line"/>
      <point x="-99" y="995" type="line"/>
      <point x="-99" y="995" type="line"/>
      <point x="-99" y="995" type="line"/>
    </contour>
  </outline>
</glyph>
<glyph name="breve" format="2">
  <advance width="805"/>
  <unicode hex="02D8"/>
  <unicode hex="0306"/>
  <outline>
    <contour>
      <point x="404" y="1136" type="qcurve"/>
      <point x="329" y="1136"/>
      <point x="254" y="1164" type="qcurve"/>
      <point x="180" y="1196"/>
      <point x="121" y="1253" type="qcurve"/>
      <point x="213" y="1343" type="line"/>
      <point x="251" y="1307"/>
      <point x="299" y="1281" type="qcurve"/>
      <point x="353" y="1261"/>
      <point x="404" y="1261" type="qcurve"/>
      <point x="454" y="1261"/>
      <point x="502" y="1281" type="qcurve"/>
      <point x="558" y="1307"/>
      <point x="594" y="1343" type="qcurve"/>
      <point x="683" y="1253" type="line"/>
      <point x="632" y="1198"/>
      <point x="556" y="1166" type="qcurve"/>
      <point x="484" y="1136"/>
    </contour>
  </outline>
</glyph>
<glyph name="acute" format="2">
  <advance width="629"/>
  <unicode hex="0301"/>
  <unicode hex="00B4"/>
  <outline>
    <contour>
      <point x="355" y="1388" type="line"/>
      <point x="506" y="1353" type="line"/>
      <point x="234" y="1111" type="line"/>
      <point x="121" y="1111" type="line"/>
    </contour>
  </outline>
</glyph>
<glyph name="circumflex" format="2">
  <advance width="766"/>
  <unicode hex="0302"/>
  <unicode hex="02C6"/>
  <outline>
    <contour>
      <point x="314" y="1376" type="line"/>
      <point x="449" y="1376" type="line"/>
      <point x="646" y="1111" type="line"/>
      <point x="533" y="1111" type="line"/>
      <point x="381" y="1275" type="line"/>
      <point x="232" y="1111" type="line"/>
      <point x="121" y="1111" type="line"/>
    </contour>
  </outline>
</glyph>
<glyph name="tilde" format="2">
  <advance width="868"/>
  <unicode hex="0303"/>
  <unicode hex="02DC"/>
  <outline>
    <contour>
      <point x="560" y="1109" type="qcurve"/>
      <point x="520" y="1107"/>
      <point x="488" y="1125" type="qcurve"/>
      <point x="460" y="1146"/>
      <point x="410" y="1181" type="qcurve"/>
      <point x="382" y="1212"/>
      <point x="357" y="1224" type="qcurve"/>
      <point x="336" y="1239"/>
      <point x="310" y="1236" type="qcurve"/>
      <point x="276" y="1236"/>
      <point x="250" y="1205" type="qcurve"/>
      <point x="226" y="1175"/>
      <point x="213" y="1105" type="qcurve"/>
      <point x="125" y="1117" type="line"/>
      <point x="157" y="1348"/>
      <point x="310" y="1347" type="qcurve"/>
      <point x="349" y="1350"/>
      <point x="379" y="1330" type="qcurve"/>
      <point x="412" y="1312"/>
      <point x="459" y="1275" type="qcurve"/>
      <point x="492" y="1246"/>
      <point x="512" y="1234" type="qcurve"/>
      <point x="538" y="1222"/>
      <point x="560" y="1222" type="qcurve"/>
      <point x="600" y="1222"/>
      <point x="621" y="1253" type="qcurve"/>
      <point x="644" y="1283"/>
      <point x="656" y="1351" type="qcurve"/>
      <point x="744" y="1339" type="line"/>
      <point x="714" y="1112"/>
    </contour>
  </outline>
</glyph>
<glyph name="breveinvertedcmb" format="2">
  <advance width="805"/>
  <unicode hex="0311"/>
  <outline>
    <contour>
      <point x="404" y="1339" type="qcurve"/>
      <point x="480" y="1339"/>
      <point x="554" y="1311" type="qcurve"/>
      <point x="629" y="1280"/>
      <point x="687" y="1222" type="qcurve"/>
      <point x="595" y="1132" type="line"/>
      <point x="559" y="1170"/>
      <point x="509" y="1194" type="qcurve"/>
      <point x="455" y="1214"/>
      <point x="404" y="1214" type="qcurve"/>
      <point x="356" y="1214"/>
      <point x="306" y="1194" type="qcurve"/>
      <point x="250" y="1170"/>
      <point x="214" y="1132" type="qcurve"/>
      <point x="125" y="1222" type="line"/>
      <point x="177" y="1279"/>
      <point x="252" y="1309" type="qcurve"/>
      <point x="324" y="1339"/>
    </contour>
  </outline>
</glyph>
<glyph name="ogonek" format="2">
  <advance width="614"/>
  <unicode hex="0328"/>
  <unicode hex="02DB"/>
  <outline>
    <contour>
      <point x="332" y="-332" type="qcurve"/>
      <point x="238" y="-334"/>
      <point x="178" y="-281" type="qcurve"/>
      <point x="121" y="-220"/>
      <point x="121" y="-127" type="qcurve"/>
      <point x="120" y="-72"/>
      <point x="150" y="-27" type="qcurve"/>
      <point x="180" y="18"/>
      <point x="223" y="37" type="qcurve"/>
      <point x="340" y="0" type="line"/>
      <point x="295" y="0"/>
      <point x="262" y="-31" type="qcurve"/>
      <point x="230" y="-61"/>
      <point x="230" y="-109" type="qcurve"/>
      <point x="230" y="-160"/>
      <point x="258" y="-191" type="qcurve"/>
      <point x="288" y="-221"/>
      <point x="340" y="-219" type="qcurve"/>
      <point x="400" y="-216"/>
      <point x="433" y="-182" type="qcurve"/>
      <point x="492" y="-279" type="line"/>
      <point x="426" y="-332"/>
    </contour>
  </outline>
</glyph>
<glyph name="endash" format="2">
  <advance width="1110"/>
  <unicode hex="2013"/>
  <outline>
    <contour>
      <point x="106" y="592" type="line"/>
      <point x="1003" y="592" type="line"/>
      <point x="1003" y="455" type="line"/>
      <point x="106" y="455" type="line"/>
    </contour>
  </outline>
</glyph>
<glyph name="quoteleft" format="2">
  <advance width="508"/>
  <unicode hex="2018"/>
  <outline>
    <contour>
      <point x="357" y="1244" type="line"/>
      <point x="280" y="1157"/>
      <point x="256" y="1064" type="qcurve"/>
      <point x="300" y="1064"/>
      <point x="330" y="1033" type="qcurve"/>
      <point x="362" y="1002"/>
      <point x="361" y="957" type="qcurve"/>
      <point x="362" y="916"/>
      <point x="332" y="886" type="qcurve"/>
      <point x="299" y="858"/>
      <point x="254" y="857" type="qcurve"/>
      <point x="202" y="858"/>
      <point x="170" y="898" type="qcurve"/>
      <point x="138" y="943"/>
      <point x="135" y="1011" type="qcurve"/>
      <point x="135" y="1066"/>
      <point x="168" y="1128" type="qcurve"/>
      <point x="201" y="1194"/>
      <point x="287" y="1298" type="qcurve"/>
    </contour>
  </outline>
</glyph>
<glyph name="quotedblleft" format="2">
  <advance width="893"/>
  <unicode hex="201C"/>
  <outline>
    <contour>
      <point x="357" y="1244" type="line"/>
      <point x="280" y="1157"/>
      <point x="256" y="1064" type="qcurve"/>
      <point x="300" y="1064"/>
      <point x="330" y="1033" type="qcurve"/>
      <point x="362" y="1002"/>
      <point x="361" y="957" type="qcurve"/>
      <point x="362" y="916"/>
      <point x="332" y="886" type="qcurve"/>
      <point x="299" y="858"/>
      <point x="254" y="857" type="qcurve"/>
      <point x="202" y="858"/>
      <point x="170" y="898" type="qcurve"/>
      <point x="138" y="943"/>
      <point x="135" y="1011" type="qcurve"/>
      <point x="135" y="1066"/>
      <point x="168" y="1128" type="qcurve"/>
      <point x="201" y="1194"/>
      <point x="287" y="1298" type="qcurve"/>
    </contour>
    <contour>
      <point x="742" y="1244" type="line"/>
      <point x="666" y="1157"/>
      <point x="644" y="1064" type="qcurve"/>
      <point x="686" y="1064"/>
      <point x="715" y="1033" type="qcurve"/>
      <point x="746" y="1002"/>
      <point x="746" y="957" type="qcurve"/>
      <point x="746" y="916"/>
      <point x="718" y="886" type="qcurve"/>
      <point x="688" y="858"/>
      <point x="642" y="857" type="qcurve"/>
      <point x="588" y="858"/>
      <point x="556" y="898" type="qcurve"/>
      <point x="526" y="943"/>
      <point x="523" y="1011" type="qcurve"/>
      <point x="524" y="1066"/>
      <point x="554" y="1128" type="qcurve"/>
      <point x="586" y="1194"/>
      <point x="672" y="1298" type="qcurve"/>
    </contour>
  </outline>
</glyph>
<glyph name="quotedblbase" format="2">
  <advance width="893"/>
  <unicode hex="201E"/>
  <outline>
    <contour>
      <point x="151" y="-202" type="line"/>
      <point x="229" y="-112"/>
      <point x="253" y="-23" type="qcurve"/>
      <point x="211" y="-23"/>
      <point x="177" y="7" type="qcurve"/>
      <point x="147" y="40"/>
      <point x="147" y="83" type="qcurve"/>
      <point x="147" y="126"/>
      <point x="177" y="153" type="qcurve"/>
      <point x="209" y="184"/>
      <point x="253" y="186" type="qcurve"/>
      <point x="307" y="188"/>
      <point x="337" y="143" type="qcurve"/>
      <point x="370" y="102"/>
      <point x="370" y="32" type="qcurve"/>
      <point x="372" y="-19"/>
      <point x="339" y="-85" type="qcurve"/>
      <point x="309" y="-144"/>
      <point x="222" y="-255" type="qcurve"/>
    </contour>
    <contour>
      <point x="536" y="-202" type="line"/>
      <point x="615" y="-112"/>
      <point x="639" y="-23" type="qcurve"/>
      <point x="599" y="-23"/>
      <point x="565" y="7" type="qcurve"/>
      <point x="532" y="40"/>
      <point x="532" y="83" type="qcurve"/>
      <point x="532" y="126"/>
      <point x="565" y="153" type="qcurve"/>
      <point x="599" y="184"/>
      <point x="641" y="186" type="qcurve"/>
      <point x="695" y="188"/>
      <point x="723" y="143" type="qcurve"/>
      <point x="757" y="102"/>
      <point x="757" y="32" type="qcurve"/>
      <point x="757" y="-19"/>
      <point x="725" y="-85" type="qcurve"/>
      <point x="695" y="-144"/>
      <point x="608" y="-255" type="qcurve"/>
    </contour>
  </outline>
</glyph>
<glyph name="daggerdbl" format="2">
  <advance width="1216"/>
  <unicode hex="2021"/>
  <outline>
    <contour>
      <point x="682" y="1140" type="line"/>
      <point x="1128" y="1140" type="line"/>
      <point x="1128" y="996" type="line"/>
      <point x="681" y="996" type="line"/>
      <point x="681" y="460" type="line"/>
      <point x="1124" y="460" type="line"/>
      <point x="1124" y="316" type="line"/>
      <point x="681" y="316" type="line"/>
      <point x="681" y="0" type="line"/>
      <point x="681" y="1" type="line"/>
      <point x="681" y="0" type="line"/>
      <point x="531" y="0" type="line"/>
      <point x="531" y="316" type="line"/>
      <point x="84" y="316" type="line"/>
      <point x="84" y="460" type="line"/>
      <point x="531" y="461" type="line"/>
      <point x="531" y="996" type="line"/>
      <point x="88" y="996" type="line"/>
      <point x="88" y="1140" type="line"/>
      <point x="531" y="1140" type="line"/>
      <point x="531" y="1456" type="line"/>
      <point x="531" y="1455" type="line"/>
      <point x="531" y="1456" type="line"/>
      <point x="681" y="1456" type="line"/>
    </contour>
  </outline>
</glyph>
<glyph name="ellipsis" format="2">
  <advance width="1260"/>
  <unicode hex="2026"/>
  <outline>
    <contour>
      <point x="248" y="-23" type="qcurve"/>
      <point x="206" y="-22"/>
      <point x="172" y="8" type="qcurve"/>
      <point x="139" y="42"/>
      <point x="139" y="84" type="qcurve"/>
      <point x="139" y="124"/>
      <point x="172" y="154" type="qcurve"/>
      <point x="206" y="184"/>
      <point x="248" y="184" type="qcurve"/>
      <point x="290" y="184"/>
      <point x="318" y="154" type="qcurve"/>
      <point x="348" y="124"/>
      <point x="348" y="84" type="qcurve"/>
      <point x="348" y="42"/>
      <point x="320" y="8" type="qcurve"/>
      <point x="292" y="-22"/>
    </contour>
    <contour>
      <point x="633" y="-23" type="qcurve"/>
      <point x="591" y="-22"/>
      <point x="558" y="8" type="qcurve"/>
      <point x="525" y="42"/>
      <point x="525" y="84" type="qcurve"/>
      <point x="525" y="124"/>
      <point x="558" y="154" type="qcurve"/>
      <point x="591" y="184"/>
      <point x="633" y="184" type="qcurve"/>
      <point x="675" y="184"/>
      <point x="703" y="154" type="qcurve"/>
      <point x="734" y="124"/>
      <point x="734" y="84" type="qcurve"/>
      <point x="734" y="42"/>
      <point x="705" y="8" type="qcurve"/>
      <point x="677" y="-22"/>
    </contour>
    <contour>
      <point x="1019" y="-23" type="qcurve"/>
      <point x="976" y="-22"/>
      <point x="943" y="8" type="qcurve"/>
      <point x="912" y="42"/>
      <point x="912" y="84" type="qcurve"/>
      <point x="912" y="124"/>
      <point x="943" y="154" type="qcurve"/>
      <point x="976" y="184"/>
      <point x="1019" y="184" type="qcurve"/>
      <point x="1061" y="184"/>
      <point x="1089" y="154" type="qcurve"/>
      <point x="1119" y="124"/>
      <point x="1119" y="84" type="qcurve"/>
      <point x="1119" y="42"/>
      <point x="1091" y="8" type="qcurve"/>
      <point x="1063" y="-22"/>
    </contour>
  </outline>
</glyph>
<glyph name="perthousand" format="2">
  <advance width="2540"/>
  <unicode hex="2030"/>
  <outline>
    <contour>
      <point x="1259" y="1480" type="line"/>
      <point x="1382" y="1387" type="line"/>
      <point x="426" y="-13" type="line"/>
      <point x="304" y="80" type="line"/>
    </contour>
    <contour>
      <point x="1247" y="-21" type="qcurve"/>
      <point x="1179" y="-21"/>
      <point x="1112" y="7" type="qcurve"/>
      <point x="1046" y="36"/>
      <point x="994" y="85" type="qcurve"/>
      <point x="943" y="136"/>
      <point x="911" y="202" type="qcurve"/>
      <point x="880" y="270"/>
      <point x="880" y="346" type="qcurve"/>
      <point x="880" y="421"/>
      <point x="911" y="487" type="qcurve"/>
      <point x="942" y="554"/>
      <point x="993" y="604" type="qcurve"/>
      <point x="1045" y="654"/>
      <point x="1111" y="683" type="qcurve"/>
      <point x="1178" y="713"/>
      <point x="1247" y="713" type="qcurve"/>
      <point x="1316" y="714"/>
      <point x="1382" y="684" type="qcurve"/>
      <point x="1448" y="654"/>
      <point x="1499" y="604" type="qcurve"/>
      <point x="1551" y="555"/>
      <point x="1583" y="488" type="qcurve"/>
      <point x="1616" y="422"/>
      <point x="1615" y="346" type="qcurve"/>
      <point x="1616" y="270"/>
      <point x="1583" y="202" type="qcurve"/>
      <point x="1552" y="136"/>
      <point x="1500" y="86" type="qcurve"/>
      <point x="1448" y="37"/>
      <point x="1382" y="8" type="qcurve"/>
      <point x="1316" y="-20"/>
    </contour>
    <contour>
      <point x="1247" y="131" type="qcurve"/>
      <point x="1287" y="131"/>
      <point x="1326" y="147" type="qcurve"/>
      <point x="1365" y="164"/>
      <point x="1395" y="193" type="qcurve"/>
      <point x="1426" y="223"/>
      <point x="1445" y="262" type="qcurve"/>
      <point x="1466" y="302"/>
      <point x="1465" y="348" type="qcurve"/>
      <point x="1466" y="392"/>
      <point x="1446" y="431" type="qcurve"/>
      <point x="1427" y="470"/>
      <point x="1396" y="499" type="qcurve"/>
      <point x="1366" y="528"/>
      <point x="1326" y="546" type="qcurve"/>
      <point x="1287" y="564"/>
      <point x="1247" y="564" type="qcurve"/>
      <point x="1207" y="564"/>
      <point x="1167" y="547" type="qcurve"/>
      <point x="1128" y="530"/>
      <point x="1097" y="500" type="qcurve"/>
      <point x="1068" y="470"/>
      <point x="1048" y="431" type="qcurve"/>
      <point x="1030" y="392"/>
      <point x="1029" y="348" type="qcurve"/>
      <point x="1029" y="303"/>
      <point x="1047" y="263" type="qcurve"/>
      <point x="1066" y="224"/>
      <point x="1096" y="194" type="qcurve"/>
      <point x="1128" y="165"/>
      <point x="1166" y="148" type="qcurve"/>
      <point x="1206" y="132"/>
    </contour>
    <contour>
      <point x="433" y="745" type="qcurve"/>
      <point x="365" y="745"/>
      <point x="298" y="773" type="qcurve"/>
      <point x="232" y="802"/>
      <point x="180" y="852" type="qcurve"/>
      <point x="130" y="903"/>
      <point x="98" y="969" type="qcurve"/>
      <point x="68" y="1037"/>
      <point x="67" y="1113" type="qcurve"/>
      <point x="68" y="1188"/>
      <point x="98" y="1254" type="qcurve"/>
      <point x="130" y="1322"/>
      <point x="180" y="1371" type="qcurve"/>
      <point x="231" y="1421"/>
      <point x="297" y="1450" type="qcurve"/>
      <point x="364" y="1480"/>
      <point x="433" y="1480" type="qcurve"/>
      <point x="502" y="1480"/>
      <point x="568" y="1451" type="qcurve"/>
      <point x="634" y="1422"/>
      <point x="685" y="1371" type="qcurve"/>
      <point x="737" y="1322"/>
      <point x="769" y="1255" type="qcurve"/>
      <point x="802" y="1188"/>
      <point x="801" y="1113" type="qcurve"/>
      <point x="802" y="1037"/>
      <point x="769" y="969" type="qcurve"/>
      <point x="738" y="903"/>
      <point x="686" y="852" type="qcurve"/>
      <point x="634" y="803"/>
      <point x="568" y="774" type="qcurve"/>
      <point x="502" y="746"/>
    </contour>
    <contour>
      <point x="433" y="897" type="qcurve"/>
      <point x="473" y="897"/>
      <point x="512" y="913" type="qcurve"/>
      <point x="551" y="930"/>
      <point x="581" y="959" type="qcurve"/>
      <point x="612" y="989"/>
      <point x="631" y="1028" type="qcurve"/>
      <point x="652" y="1068"/>
      <point x="651" y="1114" type="qcurve"/>
      <point x="652" y="1158"/>
      <point x="632" y="1197" type="qcurve"/>
      <point x="613" y="1236"/>
      <point x="582" y="1265" type="qcurve"/>
      <point x="552" y="1294"/>
      <point x="512" y="1312" type="qcurve"/>
      <point x="473" y="1330"/>
      <point x="433" y="1330" type="qcurve"/>
      <point x="393" y="1330"/>
      <point x="353" y="1313" type="qcurve"/>
      <point x="314" y="1296"/>
      <point x="283" y="1266" type="qcurve"/>
      <point x="254" y="1236"/>
      <point x="235" y="1197" type="qcurve"/>
      <point x="216" y="1158"/>
      <point x="216" y="1114" type="qcurve"/>
      <point x="216" y="1069"/>
      <point x="234" y="1029" type="qcurve"/>
      <point x="254" y="990"/>
      <point x="283" y="960" type="qcurve"/>
      <point x="313" y="931"/>
      <point x="352" y="914" type="qcurve"/>
      <point x="392" y="898"/>
    </contour>
    <contour>
      <point x="2082" y="-21" type="qcurve"/>
      <point x="2014" y="-21"/>
      <point x="1947" y="7" type="qcurve"/>
      <point x="1881" y="36"/>
      <point x="1829" y="85" type="qcurve"/>
      <point x="1778" y="136"/>
      <point x="1746" y="202" type="qcurve"/>
      <point x="1716" y="270"/>
      <point x="1715" y="346" type="qcurve"/>
      <point x="1716" y="421"/>
      <point x="1746" y="487" type="qcurve"/>
      <point x="1778" y="554"/>
      <point x="1828" y="604" type="qcurve"/>
      <point x="1880" y="654"/>
      <point x="1946" y="683" type="qcurve"/>
      <point x="2014" y="713"/>
      <point x="2082" y="713" type="qcurve"/>
      <point x="2151" y="714"/>
      <point x="2217" y="684" type="qcurve"/>
      <point x="2283" y="654"/>
      <point x="2334" y="604" type="qcurve"/>
      <point x="2386" y="555"/>
      <point x="2418" y="488" type="qcurve"/>
      <point x="2450" y="422"/>
      <point x="2450" y="346" type="qcurve"/>
      <point x="2450" y="270"/>
      <point x="2418" y="202" type="qcurve"/>
      <point x="2386" y="136"/>
      <point x="2335" y="86" type="qcurve"/>
      <point x="2284" y="37"/>
      <point x="2217" y="8" type="qcurve"/>
      <point x="2151" y="-20"/>
    </contour>
    <contour>
      <point x="2082" y="131" type="qcurve"/>
      <point x="2122" y="131"/>
      <point x="2161" y="147" type="qcurve"/>
      <point x="2200" y="164"/>
      <point x="2230" y="193" type="qcurve"/>
      <point x="2261" y="223"/>
      <point x="2280" y="262" type="qcurve"/>
      <point x="2300" y="302"/>
      <point x="2300" y="348" type="qcurve"/>
      <point x="2301" y="392"/>
      <point x="2281" y="431" type="qcurve"/>
      <point x="2262" y="470"/>
      <point x="2231" y="499" type="qcurve"/>
      <point x="2200" y="528"/>
      <point x="2161" y="546" type="qcurve"/>
      <point x="2122" y="564"/>
      <point x="2082" y="564" type="qcurve"/>
      <point x="2042" y="564"/>
      <point x="2002" y="547" type="qcurve"/>
      <point x="1964" y="530"/>
      <point x="1932" y="500" type="qcurve"/>
      <point x="1902" y="470"/>
      <point x="1883" y="431" type="qcurve"/>
      <point x="1864" y="392"/>
      <point x="1864" y="348" type="qcurve"/>
      <point x="1864" y="303"/>
      <point x="1882" y="263" type="qcurve"/>
      <point x="1902" y="224"/>
      <point x="1931" y="194" type="qcurve"/>
      <point x="1962" y="165"/>
      <point x="2001" y="148" type="qcurve"/>
      <point x="2042" y="132"/>
    </contour>
  </outline>
</glyph>
<glyph name="M.salt" format="2">
  <advance width="1888"/>
  <outline>
    <contour>
      <point x="1849" y="0" type="line"/>
      <point x="1699" y="0" type="line"/>
      <point x="1376" y="1197" type="line"/>
      <point x="998" y="0" type="line"/>
      <point x="851" y="0" type="line"/>
      <point x="472" y="1197" type="line"/>
      <point x="152" y="0" type="line"/>
      <point x="0" y="0" type="line"/>
      <point x="390" y="1456" type="line"/>
      <point x="541" y="1456" type="line"/>
      <point x="927" y="236" type="line"/>
      <point x="1310" y="1456" type="line"/>
      <point x="1460" y="1456" type="line"/>
    </contour>
  </outline>
</glyph>
<glyph name=".notdef" format="2">
  <advance width="963"/>
  <outline>
    <contour>
      <point x="791" y="-396" type="line"/>
      <point x="178" y="-396" type="line"/>
      <point x="178" y="1533" type="line"/>
      <point x="791" y="1533" type="line"/>
    </contour>
    <contour>
      <point x="324" y="1404" type="line"/>
      <point x="324" y="1341" type="line"/>
      <point x="449" y="1341" type="line"/>
      <point x="449" y="1267" type="line"/>
      <point x="322" y="1267" type="line"/>
      <point x="322" y="1205" type="line"/>
      <point x="644" y="1205" type="line"/>
      <point x="644" y="1267" type="line"/>
      <point x="515" y="1267" type="line"/>
      <point x="515" y="1341" type="line"/>
      <point x="644" y="1341" type="line"/>
      <point x="644" y="1404" type="line"/>
    </contour>
    <contour>
      <point x="322" y="1154" type="line"/>
      <point x="322" y="955" type="line"/>
      <point x="644" y="955" type="line"/>
      <point x="644" y="1021" type="line"/>
      <point x="515" y="1021" type="line"/>
      <point x="515" y="1154" type="line"/>
    </contour>
    <contour>
      <point x="449" y="1021" type="line"/>
      <point x="385" y="1021" type="line"/>
      <point x="385" y="1089" type="line"/>
      <point x="449" y="1089" type="line"/>
    </contour>
    <contour>
      <point x="322" y="902" type="line"/>
      <point x="322" y="838" type="line"/>
      <point x="449" y="838" type="line"/>
      <point x="449" y="767" type="line"/>
      <point x="322" y="767" type="line"/>
      <point x="322" y="703" type="line"/>
      <point x="515" y="703" type="line"/>
      <point x="515" y="838" type="line"/>
      <point x="644" y="838" type="line"/>
      <point x="644" y="902" type="line"/>
    </contour>
    <contour>
      <point x="578" y="787" type="line"/>
      <point x="578" y="660" type="line"/>
      <point x="322" y="660" type="line"/>
      <point x="322" y="594" type="line"/>
      <point x="644" y="594" type="line"/>
      <point x="644" y="787" type="line"/>
    </contour>
    <contour>
      <point x="449" y="551" type="line"/>
      <point x="449" y="445" type="line"/>
      <point x="515" y="445" type="line"/>
      <point x="515" y="488" type="line"/>
      <point x="578" y="488" type="line"/>
      <point x="578" y="398" type="line"/>
      <point x="385" y="398" type="line"/>
      <point x="385" y="551" type="line"/>
      <point x="322" y="551" type="line"/>
      <point x="322" y="332" type="line"/>
      <point x="644" y="332" type="line"/>
      <point x="644" y="551" type="line"/>
    </contour>
    <contour>
      <point x="322" y="217" type="line"/>
      <point x="322" y="0" type="line"/>
      <point x="644" y="0" type="line"/>
      <point x="644" y="217" type="line"/>
    </contour>
    <contour>
      <point x="578" y="64" type="line"/>
      <point x="385" y="64" type="line"/>
      <point x="385" y="154" type="line"/>
      <point x="578" y="154" type="line"/>
    </contour>
    <contour>
      <point x="322" y="-45" type="line"/>
      <point x="322" y="-107" type="line"/>
      <point x="457" y="-107" type="line"/>
      <point x="322" y="-199" type="line"/>
      <point x="322" y="-262" type="line"/>
      <point x="644" y="-262" type="line"/>
      <point x="644" y="-199" type="line"/>
      <point x="447" y="-199" type="line"/>
      <point x="580" y="-107" type="line"/>
      <point x="644" y="-107" type="line"/>
      <point x="644" y="-45" type="line"/>
    </contour>
  </outline>
</glyph>
<glyph name="a.salt" format="2">
  <advance width="1118"/>
  <outline>
    <contour>
      <point x="959" y="0" type="line"/>
      <point x="960" y="0"/>
      <point x="816" y="0" type="qcurve"/>
      <point x="816" y="156" type="line"/>
      <point x="766" y="72"/>
      <point x="668" y="25" type="qcurve"/>
      <point x="570" y="-20"/>
      <point x="465" y="-23" type="qcurve"/>
      <point x="308" y="-23"/>
      <point x="203" y="64" type="qcurve"/>
      <point x="102" y="148"/>
      <point x="102" y="293" type="qcurve"/>
      <point x="100" y="391"/>
      <point x="152" y="467" type="qcurve"/>
      <point x="206" y="545"/>
      <point x="295" y="584" type="qcurve"/>
      <point x="388" y="628"/>
      <point x="492" y="627" type="qcurve"/>
      <point x="642" y="627"/>
      <point x="816" y="570" type="qcurve"/>
      <point x="816" y="607" type="line"/>
      <point x="818" y="728"/>
      <point x="754" y="812" type="qcurve"/>
      <point x="694" y="899"/>
      <point x="545" y="896" type="qcurve"/>
      <point x="480" y="899"/>
      <point x="410" y="873" type="qcurve"/>
      <point x="340" y="850"/>
      <point x="256" y="806" type="qcurve"/>
      <point x="197" y="922" type="line"/>
      <point x="391" y="1021"/>
      <point x="556" y="1021" type="qcurve"/>
      <point x="754" y="1024"/>
      <point x="857" y="908" type="qcurve"/>
      <point x="959" y="796"/>
      <point x="959" y="607" type="qcurve"/>
    </contour>
    <contour>
      <point x="490" y="102" type="qcurve"/>
      <point x="600" y="102"/>
      <point x="691" y="158" type="qcurve"/>
      <point x="788" y="214"/>
      <point x="816" y="312" type="qcurve"/>
      <point x="816" y="465" type="line"/>
      <point x="668" y="504"/>
      <point x="515" y="504" type="qcurve"/>
      <point x="403" y="504"/>
      <point x="322" y="447" type="qcurve"/>
      <point x="242" y="390"/>
      <point x="242" y="299" type="qcurve"/>
      <point x="242" y="212"/>
      <point x="310" y="158" type="qcurve"/>
      <point x="384" y="102"/>
    </contour>
  </outline>
</glyph>
<glyph name="g_stroke" format="2">
  <advance width="963"/>
  <outline>
    <contour>
      <point x="925" y="0" type="qcurve"/>
      <point x="1070" y="0" type="line"/>
      <point x="1070" y="-102"/>
      <point x="1009" y="-191" type="qcurve"/>
      <point x="947" y="-289"/>
      <point x="836" y="-346" type="qcurve"/>
      <point x="726" y="-402"/>
      <point x="580" y="-404" type="qcurve"/>
      <point x="463" y="-401"/>
      <point x="355" y="-367" type="qcurve"/>
      <point x="248" y="-328"/>
      <point x="178" y="-271" type="qcurve"/>
      <point x="242" y="-156" type="line"/>
      <point x="299" y="-212"/>
      <point x="383" y="-244" type="qcurve"/>
      <point x="470" y="-274"/>
      <point x="562" y="-275" type="qcurve"/>
      <point x="734" y="-274"/>
      <point x="830" y="-193" type="qcurve"/>
      <point x="926" y="-86"/>
    </contour>
  </outline>
</glyph>
